<?xml version="1.0" encoding="UTF-8"?>
<svg width="73px" height="43px" viewBox="0 0 73 43" version="1.1" xmlns="http://www.w3.org/2000/svg" xmlns:xlink="http://www.w3.org/1999/xlink">
    <!-- Generator: Sketch 52.6 (67491) - http://www.bohemiancoding.com/sketch -->
    <title>Group 14</title>
    <desc>Created with Sketch.</desc>
    <g id="KYC---Mobile" stroke="none" stroke-width="1" fill="none" fill-rule="evenodd">
        <g id="Group-14" fill-rule="nonzero">
            <g id="Group-12">
                <rect id="Rectangle" fill="#FBFCFF" x="0" y="0" width="73" height="43" rx="2"></rect>
                <rect id="Rectangle" fill="#FFFFFF" opacity="0.598330543" x="5" y="19" width="17" height="19" rx="1"></rect>
                <rect id="Rectangle" stroke="#3E60D6" fill="#2A4D46" x="28.5" y="22.5" width="26" height="1"></rect>
                <rect id="Rectangle-Copy-2" stroke="#3E60D6" fill="#2A4D46" x="28.5" y="25.5" width="26" height="1"></rect>
                <rect id="Rectangle-Copy-4" stroke="#3E60D6" fill="#3E60D6" x="28.5" y="32.5" width="37" height="4"></rect>
                <g id="Group-9" opacity="0.574451265">
                    <path d="M-1.80411242e-15,0.0650224983 C0.170927947,0.0225292468 0.349545804,0 0.533333333,0 C1.65557191,0 2.58505742,0.840011015 2.7480051,1.93600212 C2.87737721,1.91234766 3.01060526,1.9 3.14666667,1.9 C4.38378451,1.9 5.38666667,2.92079077 5.38666667,4.18 C5.38666667,4.30954537 5.37605221,4.43656732 5.35566024,4.56021397 C5.36597901,4.56007148 5.37631464,4.56 5.38666667,4.56 C6.62378451,4.56 7.62666667,5.58079077 7.62666667,6.84 C7.62666667,7.22663473 7.53211791,7.59079207 7.36527068,7.90982441 C7.75806522,8.32056609 8,8.88152507 8,9.5 C8,10.1915767 7.69749343,10.8112375 7.2198171,11.2293718 C7.47615335,11.6001402 7.62666667,12.0521791 7.62666667,12.54 C7.62666667,13.7992092 6.62378451,14.82 5.38666667,14.82 C5.38666667,16.0792092 4.38378451,17.1 3.14666667,17.1 C3.01060526,17.1 2.87737721,17.0876523 2.7480051,17.0639979 C2.58505742,18.159989 1.65557191,19 0.533333333,19 C0.349545804,19 0.170927947,18.9774708 8.32667268e-17,18.9349775 L0,0.0650224983 Z" id="Combined-Shape" fill="#3E60D6" opacity="0.500558036"></path>
                    <path d="M1.77635684e-15,2 C0.901798855,2 1.64870685,2.61895548 1.77964695,3.42652788 C1.88360669,3.40909827 1.99066494,3.4 2.1,3.4 C3.09411255,3.4 3.9,4.15216162 3.9,5.08 C3.9,5.17545448 3.89147052,5.2690496 3.87508412,5.36015766 C3.88337599,5.36005267 3.89168141,5.36 3.9,5.36 C4.89411255,5.36 5.7,6.11216162 5.7,7.04 C5.7,7.32488875 5.62402332,7.59321521 5.48994965,7.82829167 C5.80558812,8.13094344 6,8.54428163 6,9 C6,9.50958283 5.75691436,9.96617502 5.37306731,10.2742739 C5.5790518,10.5474717 5.7,10.880553 5.7,11.24 C5.7,12.1678384 4.89411255,12.92 3.9,12.92 C3.9,13.8478384 3.09411255,14.6 2.1,14.6 C1.99066494,14.6 1.88360669,14.5909017 1.77964695,14.5734721 C1.64870685,15.3810445 0.901798855,16 1.77635684e-15,16 L0,2 Z" id="Combined-Shape" fill="#3E60D6"></path>
                    <path d="M2.3171934e-16,6 C0.450899427,6 0.824353427,6.26526664 0.889823476,6.61136909 C0.941803344,6.60389926 0.995332471,6.6 1.05,6.6 C1.54705627,6.6 1.95,6.92235498 1.95,7.32 C1.95,7.36090906 1.94573526,7.40102126 1.93754206,7.44006757 C1.941688,7.44002257 1.9458407,7.44 1.95,7.44 C2.44705627,7.44 2.85,7.76235498 2.85,8.16 C2.85,8.28209518 2.81201166,8.39709223 2.74497482,8.49783929 C2.90279406,8.62754719 3,8.80469213 3,9 C3,9.21839264 2.87845718,9.41407501 2.68653366,9.5461174 C2.7895259,9.66320217 2.85,9.80595129 2.85,9.96 C2.85,10.357645 2.44705627,10.68 1.95,10.68 C1.95,11.077645 1.54705627,11.4 1.05,11.4 C0.995332471,11.4 0.941803344,11.3961007 0.889823476,11.3886309 C0.824353427,11.7347334 0.450899427,12 -8.8817842e-16,12 L0,6 Z" id="Combined-Shape" fill="#FBFCFF"></path>
                </g>
                <rect id="Rectangle" fill="#3E60D6" x="3" y="12" width="17" height="19" rx="1"></rect>
                <circle id="Oval-Copy-8" fill="#3E60D6" cx="63.5" cy="7.5" r="3.5"></circle>
            </g>
        </g>
    </g>
</svg>