<?xml version="1.0" encoding="UTF-8"?>
<svg width="73px" height="43px" viewBox="0 0 73 43" version="1.1" xmlns="http://www.w3.org/2000/svg" xmlns:xlink="http://www.w3.org/1999/xlink">
    <!-- Generator: Sketch 52.6 (67491) - http://www.bohemiancoding.com/sketch -->
    <title>Group 13</title>
    <desc>Created with Sketch.</desc>
    <g id="KYC---Mobile" stroke="none" stroke-width="1" fill="none" fill-rule="evenodd">
        <g id="Group-13" fill-rule="nonzero">
            <path d="M73,6.33688749 L73,41 C73,42.1045695 72.1045695,43 71,43 L2,43 C0.8954305,43 1.3527075e-16,42.1045695 0,41 L0,6.00664183 C8.98379229,9.06582706 22.2285939,11 37,11 C51.2325796,11 64.0478974,9.20436165 73,6.33688749 Z" id="Combined-Shape" fill="#FBFCFF"></path>
            <rect id="Rectangle" fill="#9AC5A2" x="0" y="0" width="73" height="43" rx="2"></rect>
            <circle id="Oval" fill="#2A4D46" cx="8.5" cy="8.5" r="3.5"></circle>
            <rect id="Rectangle" fill="#FFFFFF" opacity="0.598330543" x="5" y="18" width="17" height="19" rx="1"></rect>
            <rect id="Rectangle" stroke="#2A4D46" fill="#2A4D46" x="28.5" y="21.5" width="26" height="1"></rect>
            <rect id="Rectangle" stroke="#2A4D46" x="3.5" y="2.5" width="10" height="12" rx="1"></rect>
            <rect id="Rectangle-Copy-3" stroke="#2A4D46" fill="#2A4D46" x="28.5" y="31.5" width="37" height="1"></rect>
            <rect id="Rectangle-Copy-2" stroke="#2A4D46" fill="#2A4D46" x="28.5" y="24.5" width="26" height="1"></rect>
            <rect id="Rectangle-Copy-4" stroke="#2A4D46" fill="#2A4D46" x="28.5" y="34.5" width="37" height="1"></rect>
        </g>
    </g>
</svg>