<?xml version="1.0" encoding="UTF-8"?>
<svg width="73px" height="43px" viewBox="0 0 73 43" version="1.1" xmlns="http://www.w3.org/2000/svg" xmlns:xlink="http://www.w3.org/1999/xlink">
    <!-- Generator: Sketch 52.6 (67491) - http://www.bohemiancoding.com/sketch -->
    <title>Group 10</title>
    <desc>Created with Sketch.</desc>
    <g id="KYC---Mobile" stroke="none" stroke-width="1" fill="none" fill-rule="evenodd">
        <g id="Group-10" fill-rule="nonzero">
            <path d="M73,6.33688749 L73,41 C73,42.1045695 72.1045695,43 71,43 L2,43 C0.8954305,43 1.3527075e-16,42.1045695 0,41 L0,6.00664183 C8.98379229,9.06582706 22.2285939,11 37,11 C51.2325796,11 64.0478974,9.20436165 73,6.33688749 Z" id="Combined-Shape" fill="#FBFCFF"></path>
            <path d="M73,6.33688749 C64.0478974,9.20436165 51.2325796,11 37,11 C22.2285939,11 8.98379229,9.06582706 -8.52651283e-14,6.00664183 L0,2 C-1.3527075e-16,0.8954305 0.8954305,2.02906125e-16 2,0 L71,0 C72.1045695,-2.02906125e-16 73,0.8954305 73,2 L73,6.33688749 Z" id="Combined-Shape" fill="#3E60D6"></path>
            <circle id="Oval" fill="#041133" cx="9" cy="8" r="5"></circle>
            <rect id="Rectangle" fill="#3E60D6" opacity="0.598330543" x="5" y="18" width="17" height="19" rx="1"></rect>
            <rect id="Rectangle" stroke="#3E60D6" fill="#3E60D6" x="28.5" y="21.5" width="26" height="1"></rect>
            <rect id="Rectangle-Copy-3" stroke="#3E60D6" fill="#3E60D6" x="28.5" y="31.5" width="37" height="1"></rect>
            <rect id="Rectangle-Copy-2" stroke="#3E60D6" fill="#3E60D6" x="28.5" y="24.5" width="26" height="1"></rect>
            <rect id="Rectangle-Copy-4" stroke="#3E60D6" fill="#3E60D6" x="28.5" y="34.5" width="37" height="1"></rect>
        </g>
    </g>
</svg>