<?xml version="1.0" encoding="UTF-8"?>
<svg width="197px" height="167px" viewBox="0 0 197 167" version="1.1" xmlns="http://www.w3.org/2000/svg" xmlns:xlink="http://www.w3.org/1999/xlink">
    <!-- Generator: Sketch 52.6 (67491) - http://www.bohemiancoding.com/sketch -->
    <title>undraw_Destination_6jtj</title>
    <desc>Created with Sketch.</desc>
    <defs>
        <linearGradient x1="10.8541302%" y1="101.734531%" x2="89.1450201%" y2="-1.73492494%" id="linearGradient-1">
            <stop stop-color="#808080" stop-opacity="0.25" offset="0%"></stop>
            <stop stop-color="#808080" stop-opacity="0.12" offset="53.514%"></stop>
            <stop stop-color="#808080" stop-opacity="0.1" offset="100%"></stop>
        </linearGradient>
        <path d="M60.0723081,0.100129337 C59.5870793,3.36261705 56.7940094,5.7838892 53.4942778,5.80252924 L24.9980864,5.87177889 C21.6983028,5.86917321 18.8934895,3.46150205 18.3923984,0.20141048 L3.29849165,0.238084528 C1.56790996,0.242290326 0.168406853,1.64799996 0.172613002,3.37782585 L0.5012189,138.500847 C0.503238853,139.331539 0.835311474,140.127406 1.42438452,140.713366 C2.01345756,141.299326 2.81127719,141.62738 3.64233206,141.62536 L75.7398548,141.45018 C76.5709098,141.448162 77.3671248,141.116234 77.9533409,140.527418 C78.5395571,139.938602 78.8677545,139.141131 78.8657334,138.310439 L78.5371299,3.18741759 C78.5351131,2.35672464 78.2030429,1.56085561 77.6139711,0.974892896 C77.0248993,0.388930181 76.2270797,0.0608728839 75.3960238,0.0628899859 L60.0723081,0.100129337 Z" id="path-2"></path>
        <linearGradient x1="37.1852275%" y1="99.8063163%" x2="56.7707128%" y2="0.328034232%" id="linearGradient-4">
            <stop stop-color="#808080" stop-opacity="0.25" offset="0%"></stop>
            <stop stop-color="#808080" stop-opacity="0.12" offset="53.514%"></stop>
            <stop stop-color="#808080" stop-opacity="0.1" offset="100%"></stop>
        </linearGradient>
    </defs>
    <g id="Intro---Mobile" stroke="none" stroke-width="1" fill="none" fill-rule="evenodd">
        <g id="2.-Domicilio" transform="translate(-90.000000, -276.000000)">
            <g id="undraw_Destination_6jtj" transform="translate(90.000000, 276.000000)">
                <g id="Group" opacity="0.5" transform="translate(34.404306, 0.000000)" fill="url(#linearGradient-1)">
                    <path d="M81.7133755,0.104135924 L3.36167775,0.294426417 C1.58342867,0.298349411 0.145053709,1.74245414 0.148975359,3.5199266 L0.505361555,150.001032 C0.51008601,151.778509 1.95546891,153.215614 3.73372262,153.210904 L82.0854204,153.020611 C82.9393676,153.018727 83.7575905,152.677838 84.3600891,152.072937 C84.9625877,151.468037 85.3000085,150.648674 85.2981228,149.795099 L84.9417366,3.31399134 C84.9370056,1.53651965 83.4916239,0.0994231224 81.7133755,0.104135924 Z" id="Path"></path>
                </g>
                <path d="M43.036851,2.19740391 L111.218454,2.19740391 C115.172779,2.19740391 118.378393,5.40301767 118.378393,9.35734265 L118.378393,143.888543 C118.378393,147.842868 115.172779,151.048482 111.218454,151.048482 L43.036851,151.048482 C39.082526,151.048482 35.8769123,147.842868 35.8769123,143.888543 L35.8769123,9.35734265 C35.8769123,5.40301767 39.082526,2.19740391 43.036851,2.19740391 Z" id="Rectangle" fill="#FFFFFF" transform="translate(77.127652, 76.622943) rotate(-0.139280) translate(-77.127652, -76.622943) "></path>
                <path d="M97.6807769,5.87895353 C97.1955481,9.14144124 94.4024782,11.5627134 91.1027466,11.5813534 L62.6065552,11.6506031 C59.3067716,11.6479974 56.5019583,9.24032624 56.0008672,5.98023467 L40.9069605,6.01690872 C39.1763788,6.02111451 37.7768757,7.42682415 37.7810818,9.15665004 L38.1096877,144.279671 C38.1117077,145.110363 38.4437803,145.90623 39.0328533,146.49219 C39.6219264,147.07815 40.419746,147.406204 41.2508009,147.404185 L113.348324,147.229004 C114.179379,147.226986 114.975594,146.895058 115.56181,146.306243 C116.148026,145.717427 116.476223,144.919955 116.474202,144.089263 L116.145599,8.96624178 C116.143582,8.13554883 115.811512,7.3396798 115.22244,6.75371708 C114.633368,6.16775437 113.835549,5.83969707 113.004493,5.84171417 L97.6807769,5.87895353 Z" id="Path" fill="#3E60D6" opacity="0.3"></path>
                <g id="Clipped" transform="translate(80.590909, 16.723554)">
                    <mask id="mask-3" fill="white">
                        <use xlink:href="#path-2"></use>
                    </mask>
                    <g id="Path"></g>
                    <polyline id="Path" stroke="#FFFFFF" stroke-width="2.10041561" mask="url(#mask-3)" points="-64.1070048 -1.64997884 48.0936854 90.2007278 49.5676507 15.0302355 -77.1483577 10.5419633 -57.1382476 29.7229379 69.7745251 39.4713568 -62.4153026 72.7717221 57.29236 111.611353 56.8436902 126.32808 -66.6800227 118.988324 -62.9398505 156.104016 -8.69816268 151.266433 20.3918565 -28.1897884"></polyline>
                </g>
                <path d="M67.5967307,7.71640842 L84.8328808,7.71651803 C85.1500414,7.71652005 85.4071502,7.97362957 85.4071512,8.29079022 L85.4071512,8.29079022 C85.4071522,8.60794692 85.1500468,8.86505407 84.8328901,8.86505511 C84.8328882,8.86505511 84.8328864,8.86505511 84.8328845,8.86505511 L67.5967345,8.8649455 C67.2795738,8.86494348 67.0224651,8.60783396 67.022464,8.29067331 L67.022464,8.29067331 C67.022463,7.97351661 67.2795685,7.71640946 67.5967252,7.71640842 C67.596727,7.71640842 67.5967289,7.71640842 67.5967307,7.71640842 Z" id="Rectangle" fill="#DBDBDB" transform="translate(76.214808, 8.290732) rotate(-0.861320) translate(-76.214808, -8.290732) "></path>
                <ellipse id="Oval" fill="#DBDBDB" cx="89.3106923" cy="7.97906214" rx="1" ry="1"></ellipse>
                <g id="Group" opacity="0.5" transform="translate(21.679426, 19.078984)" fill="#47E6B1">
                    <rect id="Rectangle" x="1.69540651" y="0.179029182" width="1" height="4.00423131"></rect>
                    <polygon id="Rectangle" transform="translate(2.048865, 2.181145) rotate(90.000000) translate(-2.048865, -2.181145) " points="1.69555086 0.178144387 2.40217991 0.178144387 2.40217991 4.18412525 1.69555086 4.18412525"></polygon>
                </g>
                <g id="Group" opacity="0.5" transform="translate(27.334928, 44.282087)" fill="#47E6B1">
                    <rect id="Rectangle" x="1.69540651" y="0.0806122426" width="1" height="4.00423131"></rect>
                    <polygon id="Rectangle" transform="translate(2.048865, 2.082728) rotate(90.000000) translate(-2.048865, -2.082728) " points="1.69555086 0.0797274481 2.40217991 0.0797274481 2.40217991 4.08570831 1.69555086 4.08570831"></polygon>
                </g>
                <g id="Group" opacity="0.5" transform="translate(135.732057, 11.541608)" fill="#47E6B1">
                    <rect id="Rectangle" x="1.69540651" y="0.179029182" width="1" height="4.00423131"></rect>
                    <polygon id="Rectangle" transform="translate(2.048865, 2.181145) rotate(90.000000) translate(-2.048865, -2.181145) " points="1.69555086 0.178144387 2.40217991 0.178144387 2.40217991 4.18412525 1.69555086 4.18412525"></polygon>
                </g>
                <g id="Group" opacity="0.5" transform="translate(192.758373, 26.380818)" fill="#47E6B1">
                    <rect id="Rectangle" x="1.69540651" y="0.0806122426" width="1" height="4.00423131"></rect>
                    <polygon id="Rectangle" transform="translate(2.048865, 2.082728) rotate(90.000000) translate(-2.048865, -2.082728) " points="1.69555086 0.0797274481 2.40217991 0.0797274481 2.40217991 4.08570831 1.69555086 4.08570831"></polygon>
                </g>
                <path d="M2.89601075,42.5503045 C2.4927153,42.3747364 2.28519516,41.9248224 2.41352806,41.504258 C2.42356028,41.4731119 2.42988079,41.4408914 2.43235853,41.4082648 C2.44399856,41.2171423 2.32895961,41.040978 2.14923795,40.9747095 C1.96951629,40.908441 1.76758357,40.9677289 1.65226445,41.120622 C1.63295237,41.1470412 1.61682565,41.1756453 1.6042186,41.2058415 C1.42857457,41.6089616 0.978463235,41.8163914 0.557715012,41.6881134 C0.526555073,41.6780867 0.494320642,41.671769 0.461679868,41.6692912 C0.270473875,41.6576562 0.0942325876,41.7726449 0.0279351683,41.9522881 C-0.038362251,42.1319313 0.0209515367,42.3337758 0.173911411,42.4490446 C0.200342639,42.4683481 0.228959173,42.4844685 0.25916811,42.4970718 C0.66246596,42.6726375 0.869987122,43.1225537 0.741650801,43.5431183 C0.731619346,43.5742645 0.725299618,43.606485 0.722822691,43.6391115 C0.71118266,43.830234 0.82622161,44.0063983 1.00594327,44.0726668 C1.18566493,44.1389353 1.38759765,44.0796474 1.50291677,43.9267543 C1.5222296,43.9003352 1.53835711,43.871731 1.55096498,43.8415349 C1.72660738,43.4384131 2.17672019,43.2309826 2.59746856,43.3592629 C2.62862825,43.3692906 2.6608628,43.3756083 2.69350371,43.3780851 C2.88470806,43.3897165 3.06094618,43.2747276 3.12724295,43.0950862 C3.19353973,42.9154448 3.13422848,42.7136021 2.98127217,42.5983317 C2.95484007,42.5790269 2.92622182,42.5629065 2.89601075,42.5503045 Z" id="Path" fill="#4D8AF0" opacity="0.5"></path>
                <path d="M181.044336,87.539021 C180.641041,87.3634529 180.433521,86.9135389 180.561853,86.4929745 C180.571886,86.4618284 180.578206,86.4296079 180.580684,86.3969813 C180.592324,86.2058588 180.477285,86.0296945 180.297563,85.963426 C180.117842,85.8971575 179.915909,85.9564454 179.80059,86.1093385 C179.781278,86.1357577 179.765151,86.1643618 179.752544,86.194558 C179.5769,86.5976781 179.126789,86.8051079 178.70604,86.6768299 C178.67488,86.6668032 178.642646,86.6604855 178.610005,86.6580077 C178.418799,86.6463727 178.242558,86.7613614 178.176261,86.9410046 C178.109963,87.1206478 178.169277,87.3224923 178.322237,87.4377611 C178.348668,87.4570646 178.377285,87.473185 178.407493,87.4857883 C178.810791,87.661354 179.018312,88.1112702 178.889976,88.5318348 C178.879945,88.562981 178.873625,88.5952015 178.871148,88.627828 C178.859508,88.8189505 178.974547,88.9951148 179.154269,89.0613833 C179.33399,89.1276518 179.535923,89.0683639 179.651242,88.9154708 C179.670555,88.8890517 179.686682,88.8604476 179.69929,88.8302514 C179.874933,88.4271296 180.325046,88.2196991 180.745794,88.3479794 C180.776954,88.3580071 180.809188,88.3643248 180.841829,88.3668016 C181.033033,88.378433 181.209272,88.2634441 181.275568,88.0838027 C181.341865,87.9041613 181.282554,87.7023186 181.129598,87.5870482 C181.103165,87.5677434 181.074547,87.551623 181.044336,87.539021 Z" id="Path" fill="#4D8AF0" opacity="0.5"></path>
                <path d="M168.555102,15.6984004 C168.151806,15.5228323 167.944286,15.0729183 168.072619,14.6523539 C168.082651,14.6212078 168.088972,14.5889873 168.091449,14.5563607 C168.103089,14.3652382 167.988051,14.1890739 167.808329,14.1228054 C167.628607,14.0565369 167.426674,14.1158248 167.311355,14.2687179 C167.292043,14.2951371 167.275917,14.3237412 167.26331,14.3539374 C167.087665,14.7570575 166.637554,14.9644873 166.216806,14.8362093 C166.185646,14.8261826 166.153412,14.8198649 166.120771,14.8173871 C165.929565,14.8057521 165.753323,14.9207409 165.687026,15.100384 C165.620729,15.2800272 165.680042,15.4818717 165.833002,15.5971405 C165.859434,15.616444 165.88805,15.6325644 165.918259,15.6451677 C166.321557,15.8207334 166.529078,16.2706496 166.400742,16.6912142 C166.39071,16.7223604 166.384391,16.7545809 166.381914,16.7872074 C166.370274,16.9783299 166.485313,17.1544943 166.665034,17.2207627 C166.844756,17.2870312 167.046689,17.2277433 167.162008,17.0748502 C167.181321,17.0484311 167.197448,17.019827 167.210056,16.9896308 C167.385698,16.586509 167.835811,16.3790785 168.256559,16.5073588 C168.287719,16.5173865 168.319954,16.5237042 168.352595,16.526181 C168.543799,16.5378124 168.720037,16.4228235 168.786334,16.2431821 C168.852631,16.0635407 168.793319,15.861698 168.640363,15.7464276 C168.613931,15.7271229 168.585313,15.7110024 168.555102,15.6984004 Z" id="Path" fill="#4D8AF0" opacity="0.5"></path>
                <path d="M174.210604,56.6828856 C173.807309,56.5073175 173.599788,56.0574035 173.728121,55.6368391 C173.738154,55.605693 173.744474,55.5734725 173.746952,55.5408459 C173.758592,55.3497234 173.643553,55.1735591 173.463831,55.1072906 C173.28411,55.0410221 173.082177,55.10031 172.966858,55.2532031 C172.947546,55.2796223 172.931419,55.3082264 172.918812,55.3384226 C172.743168,55.7415427 172.293057,55.9489725 171.872308,55.8206945 C171.841148,55.8106678 171.808914,55.8043501 171.776273,55.8018723 C171.585067,55.7902373 171.408826,55.905226 171.342528,56.0848692 C171.276231,56.2645124 171.335545,56.4663569 171.488505,56.5816257 C171.514936,56.6009292 171.543552,56.6170496 171.573761,56.6296529 C171.977059,56.8052186 172.18458,57.2551348 172.056244,57.6756994 C172.046213,57.7068456 172.039893,57.7390661 172.037416,57.7716926 C172.025776,57.9628151 172.140815,58.1389794 172.320537,58.2052479 C172.500258,58.2715164 172.702191,58.2122285 172.81751,58.0593354 C172.836823,58.0329163 172.85295,58.0043121 172.865558,57.974116 C173.041201,57.5709942 173.491313,57.3635637 173.912062,57.491844 C173.943222,57.5018717 173.975456,57.5081894 174.008097,57.5106662 C174.199301,57.5222976 174.375539,57.4073087 174.441836,57.2276673 C174.508133,57.0480259 174.448822,56.8461832 174.295865,56.7309128 C174.269433,56.711608 174.240815,56.6954876 174.210604,56.6828856 Z" id="Path" fill="#4D8AF0" opacity="0.5"></path>
                <ellipse id="Oval" fill="#3E60D6" opacity="0.5" cx="17.0123922" cy="87.467072" rx="1.4138756" ry="1.41325811"></ellipse>
                <ellipse id="Oval" fill="#4D8AF0" opacity="0.5" cx="137.66311" cy="40.8295544" rx="1.4138756" ry="1.41325811"></ellipse>
                <ellipse id="Oval" fill="#47E6B1" opacity="0.5" cx="149.209761" cy="76.6320932" rx="1.4138756" ry="1.41325811"></ellipse>
                <ellipse id="Oval" fill="#3E60D6" opacity="0.5" cx="3.10928211" cy="2.20049941" rx="1.4138756" ry="1.41325811"></ellipse>
                <polygon id="Rectangle" fill="#3E60D6" transform="translate(117.589281, 45.891511) rotate(-2.220710) translate(-117.589281, -45.891511) " points="114.96857 42.5235206 120.209878 42.5236093 120.209992 49.259501 114.968684 49.2594123"></polygon>
                <path d="M96.4516359,65.9974343 C96.4516359,65.9974343 89.1986898,62.5335952 89.3147548,65.5250739 C89.4308199,68.5165527 96.6257194,70.4846536 96.6257194,70.4846536 L96.4516359,65.9974343 Z" id="Path" fill="#FFB9B9"></path>
                <path d="M100.430887,91.3090048 C100.430887,91.3090048 97.0090564,99.6805782 95.7447712,105.721538 C94.480486,111.762498 92.555049,120.076069 95.031749,125.972024 C97.508449,131.867979 104.549938,149.196413 104.622473,151.066087 C104.695007,152.935762 104.019346,154.834436 105.515738,154.776434 C107.01213,154.718431 115.155252,152.15581 115.48583,151.019506 C115.816408,149.883202 112.707565,147.007726 112.707565,147.007726 L105.030854,122.962967 L113.040334,107.298124 L118.817543,130.667525 L119.949077,159.834447 C119.949077,159.834447 125.502524,158.121201 126.308746,159.587939 C126.308746,159.587939 128.796873,156.121022 129.112933,154.610781 C129.428993,153.100541 127.937877,124.322055 127.937877,124.322055 C127.937877,124.322055 133.035455,91.5432099 128.920372,91.702715 C124.80529,91.86222 108.686983,82.0010561 100.430887,91.3090048 Z" id="Path" fill="#62677A"></path>
                <path d="M105.457712,153.280696 C105.457712,153.280696 101.661782,161.666769 101.302188,162.055203 C100.942595,162.443637 98.4689772,166.284491 100.339469,166.211988 C102.20996,166.139486 106.626606,164.095806 109.877436,160.973823 C113.128266,157.851839 117.414349,152.442744 117.025755,152.083308 C116.637161,151.723872 113.974941,150.703575 113.974941,150.703575 L105.457712,153.280696 Z" id="Path" fill="#2F2E41"></path>
                <path d="M120.624738,157.935763 C120.624738,157.935763 120.395709,161.689612 119.70554,163.214353 C119.01537,164.739093 119.102411,166.982704 120.972902,166.910202 C122.843394,166.837699 127.677658,165.901321 127.677658,165.901321 C127.677658,165.901321 127.964715,163.643213 127.576111,163.283777 C127.187508,162.92434 125.531536,158.869062 126.236212,157.718255 C126.940888,156.567449 120.624738,157.935763 120.624738,157.935763 Z" id="Path" fill="#2F2E41"></path>
                <path d="M123.39198,36.1169086 C123.39198,36.1169086 127.37958,42.3287975 128.934,43.7665356 C130.488419,45.2042737 126.115297,48.3697528 126.115297,48.3697528 L118.288247,49.4221331 C118.288247,49.4221331 118.386714,42.3028713 117.983602,41.569501 C117.580489,40.8361308 123.39198,36.1169086 123.39198,36.1169086 Z" id="Path" fill="#FFB9B9"></path>
                <path d="M116.588757,44.245053 C116.588757,44.245053 118.201204,47.1785293 119.697598,47.1205269 C121.193992,47.0625244 128.934,43.7665356 129.264587,42.630229 C129.595175,41.4939223 131.828328,50.7697948 131.828328,50.7697948 L112.889097,84.0851595 L108.269364,80.8937518 L110.507796,61.3331313 L112.346194,50.7759519 L116.588757,44.245053 Z" id="Path" fill="#3E60D6"></path>
                <path d="M129.96315,74.0609174 C129.20767,75.6406243 128.735824,77.2879674 128.801251,78.9744178 C128.804152,79.0492097 128.807053,79.1239876 128.813698,79.1986241 C128.992923,82.659526 130.268437,86.6621485 130.726045,89.5729821 C131.058089,91.6610356 130.963595,93.1851544 129.741115,93.54338 C126.777342,94.4072529 130.173241,95.0246182 118.706759,98.8395483 C107.240277,102.654478 105.239219,99.3615658 105.210206,98.6136955 C105.181194,97.8658252 106.83408,92.1842991 106.445477,91.8248746 C106.056873,91.4654501 101.008083,96.5296109 99.4826765,95.8397336 C97.9572697,95.1498564 99.3085955,91.3525143 99.3085955,91.3525143 C99.3085955,91.3525143 102.744935,83.3548867 102.672401,81.4852027 C102.599867,79.6155188 107.877683,70.7975183 107.877683,70.7975183 L111.467445,47.4395393 C111.467445,47.4395393 112.847783,44.390058 114.703768,43.9436098 C116.559753,43.4971615 118.099662,44.560968 118.099662,44.560968 L114.993886,51.4223173 L111.717121,63.5332327 L112.265302,68.0059591 C112.265302,68.0059591 116.075739,59.9938196 118.578374,56.9008359 C121.08101,53.8078522 126.416851,46.4855947 126.416851,46.4855947 C126.416851,46.4855947 127.662584,42.2841244 126.722178,41.0285553 C125.78163,39.7692669 130.644907,39.5807595 132.718495,44.7433466 C133.817505,47.4795109 135.601814,51.5597849 136.719579,55.3587994 C137.715612,58.7243582 138.186105,61.8706217 137.199326,63.6690162 C135.69114,66.416357 131.897287,70.0275094 129.96315,74.0609174 Z" id="Path" fill="#0A2762"></path>
                <path d="M137.199335,63.6690091 C135.691133,66.416357 131.897287,70.0275094 129.96315,74.0609174 C129.457977,72.2417056 128.84169,70.3594154 128.84169,70.3594154 C128.84169,70.3594154 126.477968,57.7181302 133.469776,54.4511414 C134.628277,54.3391751 135.786942,54.6627831 136.719584,55.3587923 C137.715621,58.7243511 138.186114,61.8706193 137.199335,63.6690091 Z" id="Path" fill="#000000" opacity="0.1"></path>
                <path d="M109.443529,62.872372 L103.515983,64.6001201 L95.285813,64.9191325 L94.4391372,72.067392 L107.964702,73.0411127 C107.964702,73.0411127 111.343024,63.5477398 109.443529,62.872372 Z" id="Path" fill="#0A2762"></path>
                <path d="M119.109207,86.9070827 C119.109207,86.9070827 111.179337,88.2221499 112.989246,90.6074164 C114.799156,92.9926828 121.824069,90.4849835 121.824069,90.4849835 L119.109207,86.9070827 Z" id="Path" fill="#FFB9B9"></path>
                <path d="M128.813698,79.1986241 C128.992923,82.659526 130.268437,86.6621485 130.726045,89.5729821 C128.199883,91.9628204 125.797656,94.0707302 124.892344,94.1058214 C123.021853,94.1783239 120.014561,93.9203925 118.906773,94.3378313 C117.798985,94.75527 117.149255,87.6650036 117.149255,87.6650036 C117.149255,87.6650036 117.810411,85.392395 120.759678,84.1545858 C122.750368,83.3171809 126.566222,81.0458891 128.813698,79.1986241 Z" id="Path" fill="#000000" opacity="0.1"></path>
                <path d="M133.382738,52.2075329 C133.382738,52.2075329 139.713397,51.2131551 139.371392,61.712332 C139.029387,72.211509 140.038706,78.913332 137.492552,80.8845162 C134.946397,82.8557003 126.675798,91.7897128 124.805304,91.8622106 C122.93481,91.9347083 119.927518,91.6767817 118.81973,92.0942204 C117.711942,92.5116592 117.062214,85.4213951 117.062214,85.4213951 C117.062214,85.4213951 117.723371,83.1487842 120.672635,81.910975 C123.6219,80.6731658 130.570193,76.2843728 130.512168,74.7886252 C130.454142,73.2928776 128.75465,68.1157975 128.75465,68.1157975 C128.75465,68.1157975 126.390925,55.4745217 133.382738,52.2075329 Z" id="Path" fill="#0A2762"></path>
                <ellipse id="Oval" fill="#FFB9B9" cx="117.809521" cy="37.0822864" rx="8.23634849" ry="8.2327514"></ellipse>
                <path d="M112.26378,25.2823585 C112.06512,25.4534476 111.82722,25.5727812 111.571259,25.629735 C111.303769,25.6773984 111.047955,25.5002748 110.998571,25.2332101 C110.810129,25.623837 110.59752,26.0401616 110.212783,26.2405993 C109.828047,26.441037 109.233128,26.2729653 109.177671,25.8428519 C109.121497,26.1694268 108.976957,26.4743998 108.75972,26.7247061 C108.521011,26.952203 108.088129,27.0096213 107.879726,26.7541066 C108.048213,27.6744792 107.94422,28.6209876 107.997132,29.5551465 C108.050044,30.4893054 108.299254,31.4796484 109.005336,32.0939234 C110.035078,32.9897736 111.583557,32.7686764 112.938099,32.5989512 C113.142938,32.5559834 113.355479,32.5676058 113.554405,32.6326527 C114.061588,32.8486456 114.03858,33.5543561 114.045418,34.1053665 C114.130845,36.1017781 115.646296,37.7445526 117.630114,37.9912375 C118.167757,38.0741872 118.716352,37.9403567 119.155318,37.619162 C119.539906,37.2933212 119.736355,36.7622565 120.177043,36.5174731 C120.893895,36.1193112 121.763301,36.6999836 122.287413,37.3304663 C122.811525,37.960949 123.328073,38.7365027 124.139995,38.851914 C125.213813,39.0045459 126.031681,37.9106841 126.432941,36.9034621 C127.55136,34.0514667 127.469922,30.8688363 126.207105,28.0777194 C123.964948,23.1923028 116.305685,22.4195804 112.26378,25.2823585 Z" id="Path" fill="#2F2E41"></path>
                <path d="M104.764732,47.4731795 C103.671175,55.3598805 87.4405025,71.8533093 87.4405025,71.8533093 C87.4405025,71.8533093 75.1692523,51.411301 76.2628167,43.5245929 C76.9578222,38.4260074 80.3252201,34.0871389 85.0931398,32.1467836 C89.8610594,30.2064283 95.30282,30.9603167 99.3630615,34.1237042 C103.423303,37.2870916 105.483202,42.3778448 104.764732,47.4731795 Z" id="Path" fill="url(#linearGradient-4)"></path>
                <path d="M103.829368,47.7226926 C102.80363,55.1202956 87.57951,70.5908741 87.57951,70.5908741 C87.57951,70.5908741 76.0692831,51.4165889 77.0950216,44.0189977 C77.7460557,39.2358363 80.9045495,35.165018 85.3772582,33.3444537 C89.849967,31.5238895 94.9550139,32.2311294 98.7637675,35.1989858 C102.572521,38.1668423 104.504326,42.9428573 103.829368,47.7227044 L103.829368,47.7226926 Z" id="Path" fill="#3E60D6"></path>
                <ellipse id="Oval" fill="#FFFFFF" transform="translate(90.610785, 44.799279) rotate(-82.109190) translate(-90.610785, -44.799279) " cx="90.6107849" cy="44.799279" rx="6.76134628" ry="6.74742068"></ellipse>
            </g>
        </g>
    </g>
</svg>