<?xml version="1.0" encoding="UTF-8"?>
<svg width="225px" height="140px" viewBox="0 0 225 140" version="1.1" xmlns="http://www.w3.org/2000/svg" xmlns:xlink="http://www.w3.org/1999/xlink">
    <!-- Generator: Sketch 52.6 (67491) - http://www.bohemiancoding.com/sketch -->
    <title>Group 3</title>
    <desc>Created with Sketch.</desc>
    <g id="Intro---Mobile" stroke="none" stroke-width="1" fill="none" fill-rule="evenodd">
        <g id="0.1-Splash-(ext)" transform="translate(-75.000000, -192.000000)">
            <g id="Group-3" transform="translate(75.000000, 192.000000)">
                <rect id="Rectangle" fill="#DEE1F1" x="155.654157" y="27.3417722" width="46.0629921" height="84.0506329" rx="2"></rect>
                <rect id="Rectangle" fill="#FFFFFF" x="158.654157" y="31.3417722" width="40.0629921" height="76.0506329" rx="2"></rect>
                <rect id="Rectangle" fill="#DEE1F1" x="174.349438" y="47.8264759" width="10.9395177" height="1.01617975"></rect>
                <rect id="Rectangle" fill="#DEE1F1" x="174.349438" y="51.341757" width="19.066662" height="1.01617975"></rect>
                <rect id="Rectangle" fill="#DEE1F1" x="174.349438" y="54.8570405" width="19.0479913" height="1.01617975"></rect>
                <rect id="Rectangle" fill="#DEE1F1" x="163.955204" y="47.8415646" width="8.12714426" height="8.12943038"></rect>
                <rect id="Rectangle" fill="#DEE1F1" x="174.349438" y="65.2948304" width="10.9395177" height="1.01617975"></rect>
                <rect id="Rectangle" fill="#DEE1F1" x="174.349438" y="68.8101114" width="19.066662" height="1.01617975"></rect>
                <rect id="Rectangle" fill="#DEE1F1" x="174.349438" y="72.3253949" width="19.0479913" height="1.01617975"></rect>
                <rect id="Rectangle" fill="#DEE1F1" x="163.955204" y="65.309919" width="8.12714426" height="8.12943038"></rect>
                <rect id="Rectangle" fill="#DEE1F1" x="174.349438" y="82.7631848" width="10.9395177" height="1.01617975"></rect>
                <rect id="Rectangle" fill="#DEE1F1" x="174.349438" y="86.2784658" width="19.066662" height="1.01617975"></rect>
                <rect id="Rectangle" fill="#DEE1F1" x="174.349438" y="89.7937494" width="19.0479913" height="1.01617975"></rect>
                <rect id="Rectangle" fill="#DEE1F1" x="163.955204" y="82.7782734" width="8.12714426" height="8.12943038"></rect>
                <rect id="Rectangle" fill="#DEE1F1" x="27.0827286" y="27.3417722" width="46.0629921" height="84.0506329" rx="3"></rect>
                <rect id="Rectangle" fill="#FFFFFF" x="31.0827286" y="31.3417722" width="38.0629921" height="76.0506329" rx="3"></rect>
                <rect id="Rectangle" fill="#DEE1F1" x="45.778009" y="47.8264759" width="10.9395177" height="1.01617975"></rect>
                <rect id="Rectangle" fill="#DEE1F1" x="45.778009" y="51.341757" width="19.066662" height="1.01617975"></rect>
                <rect id="Rectangle" fill="#DEE1F1" x="45.778009" y="54.8570405" width="19.0479913" height="1.01617975"></rect>
                <rect id="Rectangle" fill="#DEE1F1" x="35.3837759" y="47.8415646" width="8.12714426" height="8.12943038"></rect>
                <rect id="Rectangle" fill="#DEE1F1" x="45.778009" y="65.2948304" width="10.9395177" height="1.01617975"></rect>
                <rect id="Rectangle" fill="#DEE1F1" x="45.778009" y="68.8101114" width="19.066662" height="1.01617975"></rect>
                <rect id="Rectangle" fill="#DEE1F1" x="45.778009" y="72.3253949" width="19.0479913" height="1.01617975"></rect>
                <rect id="Rectangle" fill="#DEE1F1" x="35.3837759" y="65.309919" width="8.12714426" height="8.12943038"></rect>
                <rect id="Rectangle" fill="#DEE1F1" x="45.778009" y="82.7631848" width="10.9395177" height="1.01617975"></rect>
                <rect id="Rectangle" fill="#DEE1F1" x="45.778009" y="86.2784658" width="19.066662" height="1.01617975"></rect>
                <rect id="Rectangle" fill="#DEE1F1" x="45.778009" y="89.7937494" width="19.0479913" height="1.01617975"></rect>
                <rect id="Rectangle" fill="#DEE1F1" x="35.3837759" y="82.7782734" width="8.12714426" height="8.12943038"></rect>
                <ellipse id="Oval" fill="#DEE1F1" cx="112.374258" cy="113.670886" rx="112.374258" ry="4.55696203"></ellipse>
                <rect id="Rectangle" fill="#62677A" x="83.0438048" y="3.55271368e-14" width="62.7122657" height="114.43038" rx="3"></rect>
                <rect id="Rectangle" fill="#FFFFFF" x="85.0438048" y="3" width="58.7122657" height="108.43038" rx="3"></rect>
                <rect id="Rectangle" fill="#3E60D6" x="108.496417" y="27.8888127" width="14.8935599" height="1.38347089"></rect>
                <rect id="Rectangle" fill="#DEE1F1" x="108.496417" y="32.6746785" width="25.9582247" height="1.38347089"></rect>
                <rect id="Rectangle" fill="#DEE1F1" x="108.496417" y="37.4605468" width="25.9328065" height="1.38347089"></rect>
                <rect id="Rectangle" fill="#3E60D6" x="94.3452334" y="27.9093544" width="11.0646648" height="11.0677772"></rect>
                <rect id="Rectangle" fill="#3E60D6" x="108.496417" y="51.6710304" width="14.8935599" height="1.38347089"></rect>
                <rect id="Rectangle" fill="#DEE1F1" x="108.496417" y="56.4568962" width="25.9582247" height="1.38347089"></rect>
                <rect id="Rectangle" fill="#DEE1F1" x="108.496417" y="61.2427646" width="25.9328065" height="1.38347089"></rect>
                <rect id="Rectangle" fill="#3E60D6" x="94.3452334" y="51.6915722" width="11.0646648" height="11.0677772"></rect>
                <rect id="Rectangle" fill="#3E60D6" x="108.496417" y="75.4532481" width="14.8935599" height="1.38347089"></rect>
                <rect id="Rectangle" fill="#DEE1F1" x="108.496417" y="80.2391139" width="25.9582247" height="1.38347089"></rect>
                <rect id="Rectangle" fill="#DEE1F1" x="108.496417" y="85.0249823" width="25.9328065" height="1.38347089"></rect>
                <rect id="Rectangle" fill="#3E60D6" x="94.3452334" y="75.4737899" width="11.0646648" height="11.0677772"></rect>
                <path d="M91.4949896,81.1392405 L90.7357095,84.4303797 C90.7357095,84.4303797 90.9888029,92.0253165 88.964056,91.2658228 C86.9393091,90.5063291 87.4454958,83.9240506 87.4454958,83.9240506 L89.2171493,80.6329114 L91.4949896,81.1392405 Z" id="Path" fill="#FFB8B8"></path>
                <ellipse id="Oval" fill="#FFB8B8" cx="80.2323349" cy="40" rx="5.06186727" ry="5.06329114"></ellipse>
                <path d="M76.3093878,41.3924051 L75.8032011,48.7341772 L82.1305352,49.4936709 C82.1305352,49.4936709 82.1305352,43.4177215 82.6367219,42.6582278 C83.1429086,41.8987342 76.3093878,41.3924051 76.3093878,41.3924051 Z" id="Path" fill="#FFB8B8"></path>
                <path d="M90.3560695,50.8860759 L82.1602255,47.4143215 C82.1602255,47.4143215 78.2451243,44.3925139 75.9485172,46.626638 L74.9173844,48.1012658 C74.9173844,48.1012658 65.8060233,51.6455696 65.8060233,54.4303797 L69.3493304,68.3544304 C69.3493304,68.3544304 67.3245835,76.2025316 70.3617039,76.7088608 L86.8127725,78.2278481 C86.8127725,78.2278481 89.0906128,75.443038 87.0658659,71.8987342 L87.825146,63.5443038 L90.3560695,50.8860759 Z" id="Path" fill="#0A2762"></path>
                <path d="M84.7880155,51.1392405 L90.3560695,50.8860759 C90.3560695,50.8860759 92.127723,51.3924051 93.3931898,56.2025316 C94.6586566,61.0126582 94.91175,68.8607595 94.91175,68.8607595 L91.8746296,83.0379747 L88.0782292,82.5316456 L89.5967894,68.8607595 L87.0658557,59.7468354 L84.7880155,51.1392405 Z" id="Path" fill="#0A2762"></path>
                <path d="M68.8431336,52.6582278 L66.0979665,53.5134177 C66.0979665,53.5134177 63.7812663,56.9620253 63.7812663,58.7341772 C63.7812663,60.5063291 62.7688929,73.9240506 62.7688929,73.9240506 L69.3493203,84.8101266 L71.3740672,79.4936709 L67.3245734,72.6582278 L70.6147871,64.3037975 L68.8431336,52.6582278 Z" id="Path" fill="#0A2762"></path>
                <path d="M87.5720425,77.721519 L69.3754395,76.120038 C69.3754395,76.120038 67.5776668,87.5949367 67.8307601,92.1518987 C68.0838535,96.7088608 68.3369469,103.797468 68.3369469,103.797468 L66.3121999,134.683544 L74.1580942,133.670886 L75.1704677,108.101266 L78.4606814,94.1772152 L82.2570818,111.898734 L84.7880155,134.683544 L91.6215363,133.924051 L89.343696,106.329114 C89.343696,106.329114 91.3684429,81.5189873 87.5720425,77.721519 Z" id="Path" fill="#62677A"></path>
                <path d="M90.1029761,132.658228 L92.3808164,133.417722 C92.3808164,133.417722 97.1895903,132.151899 95.9241235,135.443038 C94.6586566,138.734177 91.1153496,138.227848 91.1153496,138.227848 C91.1153496,138.227848 86.8127624,141.518987 85.0411088,138.987342 L86.0534823,133.670886 L90.1029761,132.658228 Z" id="Path" fill="#041133"></path>
                <path d="M71.6271606,132.658228 L73.9050008,133.417722 C73.9050008,133.417722 78.7137747,132.151899 77.4483079,135.443038 C76.1828411,138.734177 72.639534,138.227848 72.639534,138.227848 C72.639534,138.227848 68.3369469,141.518987 66.5652933,138.987342 L67.5776668,133.670886 L71.6271606,132.658228 Z" id="Path" fill="#041133"></path>
                <path d="M76.3093878,44.4303797 C76.3093878,44.4303797 70.9944272,40.6329114 73.7784542,36.0759494 C75.7098526,32.9145873 79.7120028,33.1648278 81.9822224,33.6146177 C83.2238304,33.8438516 84.2731168,34.6696429 84.7880155,35.8227848 C85.1676555,36.7088608 85.1676555,37.5949367 83.6490953,37.5949367 C80.611975,37.5949367 82.1305352,39.8734177 82.1305352,39.8734177 C82.1305352,39.8734177 80.1057882,40.3797468 80.611975,42.1518987 C81.1181617,43.9240506 76.3093878,44.4303797 76.3093878,44.4303797 Z" id="Path" fill="#2F2E41"></path>
                <circle id="Oval" stroke="#63677B" fill="#62677A" fill-rule="nonzero" cx="113" cy="7" r="1"></circle>
            </g>
        </g>
    </g>
</svg>