<?xml version="1.0" encoding="UTF-8"?>
<svg width="205px" height="169px" viewBox="0 0 205 169" version="1.1" xmlns="http://www.w3.org/2000/svg" xmlns:xlink="http://www.w3.org/1999/xlink">
    <!-- Generator: Sketch 52.6 (67491) - http://www.bohemiancoding.com/sketch -->
    <title>Group 2</title>
    <desc>Created with Sketch.</desc>
    <g id="Intro---Mobile" stroke="none" stroke-width="1" fill="none" fill-rule="evenodd">
        <g id="3.A-Estados-de-Cuenta" transform="translate(-85.000000, -309.000000)">
            <g id="Group-2" transform="translate(86.000000, 310.000000)">
                <path d="M129.946787,16.4709601 L129.946787,143.495075 C129.946162,146.646681 127.396355,149.201084 124.251567,149.200561 L72.7930407,149.200561 C69.6482526,149.201084 67.098446,146.646681 67.0978206,143.495075 L67.0978206,16.4709601 C67.0976878,14.957178 67.6976755,13.5053583 68.7657653,12.4349527 C69.833855,11.3645471 71.2825337,10.7632584 72.7930407,10.7633915 L80.4933273,10.7633915 L80.4933273,11.7545636 C80.4940693,14.3498492 82.5932268,16.4535581 85.1828974,16.4543018 L111.352652,16.4543018 C113.94263,16.4543018 116.042222,14.3501573 116.042222,11.7545636 L116.042222,10.7633915 L124.251567,10.7633915 C125.762074,10.7632584 127.210752,11.3645471 128.278842,12.4349527 C129.346932,13.5053583 129.94692,14.957178 129.946787,16.4709601 Z" id="Path" fill="#C5CFF2"></path>
                <path d="M137.699351,36.3414135 L138.209354,36.3414135 C138.47233,36.3414135 138.685513,36.5550592 138.685513,36.8186045 L138.685513,53.5679216 C138.685513,53.8314673 138.47233,54.0451136 138.209354,54.0451147 L137.699351,54.0451147" id="Path" stroke="#3F3D56" stroke-width="0.5"></path>
                <path d="M65.9939494,28.300251 L65.6252374,28.300251 C65.4527325,28.300251 65.3128896,28.1601049 65.3128896,27.987226 L65.3128896,22.7850781 C65.3128896,22.6121992 65.4527325,22.4720531 65.6252374,22.4720531 L65.9939494,22.4720531" id="Path" stroke="#3F3D56" stroke-width="0.5"></path>
                <path d="M65.9359916,43.2870476 L65.6212689,43.2870476 C65.4268094,43.2870476 65.2691688,43.1290652 65.2691688,42.9341841 L65.2691688,33.4953524 C65.2691682,33.4017668 65.3062641,33.3120141 65.3722958,33.2458389 C65.4383274,33.1796637 65.5278858,33.1424868 65.6212689,33.1424868 L65.9939536,33.1424868" id="Path" stroke="#3F3D56" stroke-width="0.5"></path>
                <path d="M65.9359916,57.0687663 L65.6260935,57.0687663 C65.4410431,57.0687652 65.2910304,56.9184272 65.2910292,56.7329755 L65.2910292,47.1723422 C65.2910304,46.9868908 65.4410434,46.8365535 65.6260935,46.8365535 L65.9359916,46.8365535" id="Path" stroke="#3F3D56" stroke-width="0.5"></path>
                <rect id="Rectangle" stroke="#3F3D56" stroke-width="0.5" x="65.9939494" y="3.21153494" width="71.7054012" height="146.046662" rx="7.43253074"></rect>
                <rect id="Rectangle" fill="#F2F2F2" x="94.5141487" y="8.19758647" width="10.0133085" height="2.03767903" rx="0.529296297"></rect>
                <ellipse id="Oval" fill="#F2F2F2" cx="107.194757" cy="9.21642599" rx="1.15327895" ry="1.15577951"></ellipse>
                <rect id="Rectangle" stroke="#3F3D56" stroke-width="0.5" x="94.9297066" y="7.57289819" width="10.0133085" height="2.03767903" rx="0.529296297"></rect>
                <ellipse id="Oval" stroke="#3F3D56" stroke-width="0.5" cx="107.610315" cy="8.59173771" rx="1.15327895" ry="1.15577951"></ellipse>
                <path d="M133.271249,12.7228304 L133.271249,139.746945 C133.270624,142.898552 130.720818,145.452955 127.576029,145.452431 L76.1175033,145.452431 C72.9727153,145.452955 70.4229086,142.898552 70.4222833,139.746945 L70.4222833,12.7228304 C70.4221504,11.2090483 71.0221382,9.7572286 72.0902279,8.686823 C73.1583177,7.6164174 74.6069963,7.01512875 76.1175033,7.01526187 L83.8177899,7.01526187 L83.8177899,8.00643394 C83.818532,10.6017196 85.9176894,12.7054284 88.50736,12.7061721 L114.677114,12.7061721 C117.267092,12.7061721 119.366685,10.6020277 119.366685,8.00643394 L119.366685,7.01526187 L127.576029,7.01526187 C129.086536,7.01512875 130.535215,7.6164174 131.603305,8.686823 C132.671395,9.7572286 133.271382,11.2090483 133.271249,12.7228304 Z" id="Path" stroke="#3F3D56" stroke-width="0.5"></path>
                <rect id="Rectangle" stroke="#3F3D56" stroke-width="0.5" x="72.2195688" y="19.1550416" width="6.44114637" height="1"></rect>
                <rect id="Rectangle" stroke="#3F3D56" stroke-width="0.5" x="72.2195688" y="20.6126476" width="6.44114637" height="1"></rect>
                <rect id="Rectangle" stroke="#3F3D56" stroke-width="0.5" x="72.2195688" y="22.0702536" width="6.44114637" height="1"></rect>
                <path d="M130.32804,21.2373317 L130.137249,21.2373317 L130.065614,21.1773949 C130.304424,20.891819 130.435341,20.5311297 130.435423,20.1585284 C130.429728,19.3042115 129.734474,18.6160489 128.882,18.6209514 C128.029527,18.6258539 127.342199,19.3219677 127.346289,20.1762938 C127.350378,21.0306198 128.044339,21.7200929 128.89682,21.7167987 C129.267509,21.7145001 129.625878,21.5831559 129.910588,21.3452466 L129.982113,21.4051958 L129.982113,21.596946 L131.174802,22.7956062 L131.532597,22.4360086 L130.32804,21.2373317 Z M128.896811,21.2373317 C128.461142,21.2385739 128.067682,20.9765199 127.900099,20.5734971 C127.732516,20.1704743 127.823857,19.7059575 128.131483,19.3967839 C128.43911,19.0876104 128.90236,18.9947483 129.304987,19.1615457 C129.707614,19.3283432 129.97022,19.7219084 129.970222,20.1585242 C129.97182,20.4445972 129.85934,20.7194607 129.657778,20.922036 C129.456216,21.1246113 129.182269,21.2381174 128.896811,21.2373317 Z" id="Shape" stroke="#3F3D56" stroke-width="0.5"></path>
                <path d="M165.216337,35.1885096 C165.44134,30.8798596 168.992917,27.5019198 173.298129,27.501839 C173.544091,27.501839 173.786972,27.5146951 174.027345,27.536224 C175.951268,24.2191554 179.48998,22.1774566 183.318408,22.1756428 C187.146836,22.173829 190.687473,24.2121739 192.614524,27.5274179 C192.817316,27.5121526 193.02147,27.501839 193.228151,27.501839 C197.533363,27.5019198 201.08494,30.8798596 201.309943,35.1885096" id="Path" fill="#C5CFF2"></path>
                <path d="M166.901931,34.5646105 C167.126936,30.2559618 170.678512,26.8780238 174.983723,26.877942 C175.229685,26.877942 175.472566,26.890796 175.712942,26.9123269 C177.636864,23.5952592 181.175575,21.5535608 185.004003,21.5517466 C188.83243,21.5499324 192.373066,23.588276 194.300118,26.9035188 C194.50291,26.8882556 194.707064,26.877942 194.913747,26.877942 C199.218958,26.8780239 202.770533,30.2559622 202.995537,34.5646105" id="Path" stroke="#C5CFF2" stroke-width="0.5"></path>
                <path d="M143.60733,81.2072129 C143.832333,76.8985629 147.38391,73.5206231 151.689122,73.5205423 C151.935084,73.5205423 152.177965,73.5333984 152.418338,73.5549272 C154.342261,70.2378587 157.880973,68.1961599 161.709401,68.1943461 C165.537829,68.1925323 169.078465,70.2308771 171.005517,73.5461212 C171.208309,73.5308559 171.412462,73.5205423 171.619144,73.5205423 C175.924356,73.5206231 179.475933,76.8985629 179.700936,81.2072129" id="Path" fill="#C5CFF2"></path>
                <path d="M145.292924,80.5833138 C145.517929,76.2746651 149.069505,72.8967271 153.374716,72.8966453 C153.620678,72.8966453 153.863559,72.9094993 154.103934,72.9310302 C156.027857,69.6139624 159.566568,67.572264 163.394995,67.5704498 C167.223423,67.5686356 170.764059,69.6069792 172.691111,72.9222221 C172.893903,72.9069589 173.098056,72.8966453 173.30474,72.8966453 C177.60995,72.8967271 181.161526,76.2746654 181.38653,80.5833138" id="Path" stroke="#3F3D56" stroke-width="0.5"></path>
                <path d="M8.34325637,13.7408787 C8.56825882,9.43222872 12.1198362,6.05428891 16.4250479,6.0542081 C16.6710103,6.0542081 16.9138914,6.06706419 17.1542646,6.08859303 C19.0781876,2.7715245 22.6168993,0.729825698 26.4453273,0.728011909 C30.2737553,0.72619812 33.8143918,2.76454294 35.7414433,6.07978701 C35.9442355,6.06452171 36.1483887,6.0542081 36.3550705,6.0542081 C40.6602822,6.05428891 44.2118596,9.43222872 44.4368621,13.7408787" id="Path" fill="#C5CFF2"></path>
                <path d="M10.0288503,13.1169796 C10.2538549,8.80833092 13.8054314,5.4303929 18.1106419,5.4303111 C18.3566043,5.4303111 18.5994854,5.4431651 18.8398607,5.46469602 C20.7637835,2.14762828 24.3024945,0.105929867 28.1309218,0.104115649 C31.959349,0.102301431 35.4999851,2.14064508 37.4270373,5.45588792 C37.6298295,5.4406247 37.8339827,5.4303111 38.0406666,5.4303111 C42.3458767,5.43039295 45.8974526,8.80833125 46.122456,13.1169796" id="Path" stroke="#3F3D56" stroke-width="0.5"></path>
                <rect id="Rectangle" fill="#3E60D6" x="72.5312372" y="40.3965087" width="49.4513818" height="27.4862843" rx="2.61270459"></rect>
                <rect id="Rectangle" stroke="#3F3D56" stroke-width="0.5" x="75.2323631" y="35.1907731" width="49.4513818" height="27.4862843" rx="2.61270459"></rect>
                <path d="M92.1598142,55.0807125 L96.5213284,59.585423 C96.7136394,59.7797426 96.9774187,59.885954 97.2504246,59.8789953 L97.263444,59.8789953 C97.5364499,59.885954 97.8002292,59.7797426 97.9925402,59.585423 L102.354054,55.0807125 C102.548712,54.8983167 102.659198,54.6432039 102.659198,54.3761381 C102.659198,54.1090723 102.548712,53.8539594 102.354054,53.6715636 C101.940135,53.2833972 101.296777,53.2833972 100.882857,53.6715636 L98.298503,56.3789626 L98.298503,49.3984501 C98.2735756,48.8401109 97.8146364,48.4002949 97.2569478,48.4002949 C96.6992593,48.4002949 96.24032,48.8401109 96.2153926,49.3984501 L96.2153926,56.3789626 L93.6310385,53.6715636 C93.2171197,53.2833951 92.57376,53.2833951 92.1598412,53.6715636 C91.965184,53.8539594 91.8546972,54.1090723 91.8546972,54.3761381 C91.8546972,54.6432039 91.965184,54.8983167 92.1598412,55.0807125 L92.1598142,55.0807125 Z" id="Path" fill="#FFFFFF"></path>
                <rect id="Rectangle" fill="#3E60D6" transform="translate(102.659180, 101.199501) rotate(-180.000000) translate(-102.659180, -101.199501) " x="77.933489" y="87.4563591" width="49.4513818" height="27.4862843" rx="2.61270459"></rect>
                <rect id="Rectangle" stroke="#3F3D56" stroke-width="0.5" transform="translate(99.958054, 95.993766) rotate(-180.000000) translate(-99.958054, -95.993766) " x="75.2323631" y="82.2506234" width="49.4513818" height="27.4862843" rx="2.61270459"></rect>
                <path d="M107.756292,102.140565 C107.950949,101.958169 108.061436,101.703056 108.061436,101.435991 C108.061436,101.168925 107.950949,100.913812 107.756292,100.731416 C107.342373,100.343248 106.699013,100.343248 106.285094,100.731416 L103.70074,103.438815 L103.70074,96.4583004 C103.675813,95.8999613 103.216874,95.4601453 102.659185,95.4601453 C102.101497,95.4601453 101.642557,95.8999613 101.61763,96.4583004 L101.61763,103.438813 L99.0332757,100.731414 C98.6193561,100.343248 97.975998,100.343248 97.5620784,100.731414 C97.3674212,100.91381 97.2569345,101.168923 97.2569345,101.435988 C97.2569345,101.703054 97.3674212,101.958167 97.5620784,102.140563 L101.923593,106.645273 C102.115903,106.839593 102.379683,106.945805 102.652689,106.938846 L102.665708,106.938846 C102.938714,106.945804 103.202493,106.839593 103.394804,106.645273 L107.756319,102.140563 L107.756292,102.140565 Z" id="Path" fill="#FFFFFF"></path>
                <path d="M2.84856789,134.443787 C4.57459076,135.072622 6.50867638,134.540287 7.67208962,133.116168 C8.83550286,131.692049 8.97443857,129.686826 8.01858897,128.115233 C7.06273937,126.543639 5.22062843,125.748527 3.42444793,126.13226 L3.5326862,128.362855 L2.47963149,126.451215 C1.44611923,126.937886 0.647686785,127.815863 0.259792211,128.892208 C0.122035459,129.269237 0.0382900185,129.663929 0.0110538383,130.06451 C-0.125529706,131.995624 1.03272757,133.783221 2.84856789,134.443787 Z" id="Path" fill="#59E7B2"></path>
                <path d="M8.05911039,160.314923 C7.68738144,158.417897 9.29816047,156.736126 10.88924,155.642982 C12.4803195,154.549838 14.3394089,153.475774 14.8822832,151.620647 C15.6624931,148.954505 13.3384859,146.512819 11.5296375,144.407213 C10.1876442,142.844615 9.03518762,141.128119 8.09638385,139.293644 C7.72007961,138.558074 7.37423161,137.789128 7.27519586,136.9685 C7.13257642,135.786703 7.51142802,134.6107 7.89311166,133.483421 C9.16461196,129.728115 10.5240692,126.004276 11.9714835,122.311902" id="Path" stroke="#3F3D56" stroke-width="0.5"></path>
                <path d="M3.02665936,133.869503 C4.7526824,134.498337 6.68676799,133.966002 7.85018095,132.541883 C9.0135939,131.117763 9.15252912,129.11254 8.19667906,127.540947 C7.240829,125.969354 5.39871776,125.174242 3.60253732,125.557975 L3.71077767,127.788571 L2.65772296,125.876931 C1.62420991,126.363601 0.825776661,127.241578 0.437881597,128.317923 C0.300125814,128.694953 0.216380404,129.089645 0.189143224,129.490226 C0.0525614032,131.42134 1.21081913,133.208936 3.02665936,133.869503 Z" id="Path" stroke="#3F3D56" stroke-width="0.5"></path>
                <path d="M7.53056238,121.541584 C8.0325368,120.153534 9.20581974,119.117604 10.643076,118.793443 L10.9991301,120.914005 L11.6592437,118.686854 C13.5398642,118.714804 15.1867476,119.957895 15.7327821,121.761618 C16.2788167,123.565342 15.5987412,125.515923 14.0506269,126.586346 C12.5025126,127.656769 10.4414991,127.601479 8.95274462,126.449587 C7.46399011,125.297694 6.88901697,123.313445 7.53055823,121.54158 L7.53056238,121.541584 Z" id="Path" fill="#59E7B2"></path>
                <path d="M7.76801836,120.77587 C8.26999353,119.387822 9.44327661,118.351894 10.880532,118.027735 L11.236584,120.148298 L11.8966976,117.921145 C13.7773181,117.949094 15.4242015,119.192185 15.970236,120.995909 C16.5162705,122.799633 15.8361951,124.750213 14.2880808,125.820637 C12.7399665,126.89106 10.678953,126.83577 9.19019852,125.683877 C7.70144401,124.531984 7.12647087,122.547735 7.76801213,120.77587 L7.76801836,120.77587 Z" id="Path" stroke="#3F3D56" stroke-width="0.5"></path>
                <path d="M10.77054,144.450192 C12.8370359,145.201414 15.1370621,144.279201 16.1162203,142.3068 C17.0953785,140.334399 16.4419873,137.939657 14.5976199,136.740983 L14.0903858,138.452474 L13.7307205,136.306916 C13.7271645,136.305235 13.7234825,136.303835 13.7197082,136.30273 C12.2671902,135.773691 10.643361,136.061765 9.46032696,137.058362 C8.2772929,138.054958 7.71493404,139.608546 7.98523283,141.133496 C8.25553162,142.658445 9.31738918,143.922889 10.7705359,144.450192 L10.77054,144.450192 Z" id="Path" fill="#59E7B2"></path>
                <path d="M10.9762848,143.674604 C13.0427806,144.425826 15.3428068,143.503613 16.3219651,141.531212 C17.3011233,139.558811 16.647732,137.164069 14.8033646,135.965395 L14.2961327,137.676886 L13.936457,135.531328 C13.9329011,135.529646 13.929219,135.528247 13.9254447,135.527143 C12.4729266,134.998103 10.8490975,135.286177 9.66606341,136.282774 C8.48302935,137.27937 7.92067048,138.832958 8.19096928,140.357908 C8.46126807,141.882857 9.52312563,143.147301 10.9762723,143.674604 L10.9762848,143.674604 Z" id="Path" stroke="#3F3D56" stroke-width="0.5"></path>
                <path d="M6.26861091,151.647149 C6.6223426,153.664304 8.33749802,155.15748 10.3799778,155.226413 C12.4224577,155.295346 14.2339658,153.921193 14.7223101,151.932457 C15.2106544,149.943721 14.2423498,147.884008 12.4012051,146.995157 C10.5600604,146.106306 8.34933848,146.631277 7.10192487,148.253557 L9.02859018,151.159719 L6.39604172,149.617228 C6.19192422,150.273869 6.14822076,150.970048 6.26861091,151.647149 Z" id="Path" fill="#59E7B2"></path>
                <path d="M6.4467003,151.072864 C6.80043072,153.090021 8.51558605,154.583199 10.5580669,154.652133 C12.6005478,154.721067 14.4120578,153.346915 14.9004035,151.358178 C15.3887493,149.369442 14.4204451,147.309727 12.5792999,146.420874 C10.7381547,145.532022 8.52743131,146.056993 7.28001634,147.679272 L9.20667957,150.585437 L6.57413318,149.042931 C6.3700141,149.699577 6.32630993,150.395759 6.4467003,151.072864 Z" id="Path" stroke="#3F3D56" stroke-width="0.5"></path>
                <path d="M2.05524929,162.884491 C2.05524929,162.884491 5.87120465,161.385799 7.02123809,160.565101 C8.17127153,159.744402 12.8911379,158.764443 13.1764329,160.080663 C13.4617279,161.396883 18.9111039,166.626947 14.6029099,166.661773 C10.2947159,166.696599 4.59258307,167.370157 3.44476663,166.669461 C2.29695019,165.968765 2.05524929,162.884491 2.05524929,162.884491 Z" id="Path" fill="#656380"></path>
                <path d="M14.6797944,166.203591 C10.3716004,166.238426 4.66946958,166.911988 3.52165106,166.211281 C2.64752517,165.677662 2.29919421,163.762905 2.18264478,162.879512 C2.10193098,162.88299 2.05525345,162.884487 2.05525345,162.884487 C2.05525345,162.884487 2.29694812,165.968756 3.44476871,166.669457 C4.5925893,167.370157 10.2947201,166.696601 14.602912,166.661767 C15.8465166,166.651715 16.2760808,166.208299 16.2524937,165.551562 C16.0797277,165.948346 15.6054266,166.196112 14.6797944,166.203591 Z" id="Path" fill="#000000" opacity="0.2"></path>
                <path d="M10.558512,166.490977 L67.0743769,166.490977" id="Path" stroke="#3F3D56" stroke-width="0.5"></path>
                <g id="Group-16" transform="translate(17.000000, 54.000000)">
                    <path d="M28.3888654,8.32771637 C28.3725277,8.41204762 28.3561926,8.49398071 28.3375221,8.57831195 C27.4834851,12.3421639 27.6724944,16.1518005 28.7342085,20 L11,20 L13.8001386,6.77349698 C13.7986024,4.81732304 14.618302,2.95651289 16.0472517,1.67229789 C16.1662576,1.56386309 16.2899239,1.4578373 16.4182612,1.36144478 C17.5528758,0.475568635 18.9370415,-0.00257267131 20.3594617,1.04111986e-05 L21.8808751,1.04111986e-05 C22.797114,-0.00148018587 23.7042362,0.187834568 24.5480055,0.556635666 C24.690345,0.619302193 24.8303595,0.686751451 24.96569,0.759037697 C27.9058432,1.81445867 29.6769246,4.93976588 29.3199147,8.1686709 C28.8952238,12.0096326 29.5135949,15.7710891 31,19.465053 L30.0736137,19.5758995 C28.5918795,15.8987851 27.9735084,12.1542159 28.3888654,8.32771637 Z" id="Path" fill="#2F2E41"></path>
                    <path d="M16.9676319,11 C16.9676319,11 18.422601,17.499998 15.5126629,18.0000006 C12.6027249,18.5000033 23.0300043,20 23.0300043,20 C23.0300043,20 22.3025211,14.7500002 24,12.9999994 L16.9676319,11 Z" id="Path" fill="#FBBEBE"></path>
                    <path d="M5.05192365,54 C5.05192365,54 4.54387552,60.9062156 6.70615094,60.9990702 C8.86842635,61.0919248 7.66733076,54.1989215 7.66733076,54.1989215 L5.05192365,54 Z" id="Path" fill="#FBBEBE"></path>
                    <path d="M38.918918,57 C38.918918,57 41.3513525,64.2039616 38.918918,64.9492002 C36.4864836,65.6944389 36,57.9936497 36,57.9936497 L38.918918,57 Z" id="Path" fill="#FBBEBE"></path>
                    <polygon id="Path" fill="#3E60D6" points="26 22.5161419 29.2839344 22 30.6667542 22.9968464 31.8333771 26.6009126 34.6334297 41.2582062 36.7334034 50.8693201 40 57.5972892 34.6334297 60 29.4998687 42.6997786"></polygon>
                    <path d="M12.6507246,40.4015767 C12.6507246,40.4015767 11.2384236,50.0078752 12.1799576,51.9291343 C12.1799576,51.9291343 10.4279938,63.0812371 9.11997085,70.4212605 L7.2369029,80.9881886 L3,97.0787408 L9.82612266,99 L23.7137528,59.6141737 L27.7152735,81.7086621 L28.4214253,97.5590556 L35.718315,97.3188969 L34.776781,69.700787 C34.776781,69.700787 39.0136866,51.4488195 31.7167943,44.7244098 C24.419902,38 23.2429858,38 23.2429858,38 L12.6507246,40.4015767 Z" id="Path" fill="#2F2E41"></path>
                    <path d="M33.7661545,96 L35.7599999,102.459958 L37.0061546,108.202144 C37.0061546,108.202144 41.4923067,114.662102 37.0061546,113.944328 C32.5200026,113.226553 32.0215384,110.833977 32.0215384,110.833977 L32.0215384,109.398431 L30.7753837,108.680659 L30.7753837,106.28808 C30.7753837,106.28808 29.0307704,105.091793 30.7753837,103.177729 L30.0276931,96.4785153 L33.7661545,96 Z" id="Path" fill="#2F2E41"></path>
                    <path d="M5.23384638,96 L3.24000067,102.459958 L1.9938457,108.202144 C1.9938457,108.202144 -2.49230713,114.662102 1.9938457,113.944328 C6.47999854,113.226553 6.97846277,110.833977 6.97846277,110.833977 L6.97846277,109.398431 L8.22461494,108.680659 L8.22461494,106.28808 C8.22461494,106.28808 9.96923133,105.091793 8.22461494,103.177729 L8.97230848,96.4785153 L5.23384638,96 Z" id="Path" fill="#2F2E41"></path>
                    <circle id="Oval" fill="#FBBEBE" cx="22" cy="8" r="6"></circle>
                    <path d="M16.1935894,16 C16.1935894,16 22.2802556,18.6400005 23.9189714,18.1600007 C25.5576871,17.6800008 26.0258947,19.8399988 26.0258947,19.8399988 L30.7079461,23.2000004 L29.3033315,31.3600006 C29.3033315,31.3600006 30.4738424,35.6799992 29.0692277,38.560001 C29.0692277,38.560001 32.8148694,39.7599993 31.4102521,41.6800014 C31.4102521,41.6800014 33.9853803,43.1200009 32.5807657,46 C32.5807657,46 25.5576898,44.0800006 24.8553838,40.4800004 L17.5982041,41.4400001 L12.4479504,45.5200002 C12.4479504,45.5200002 9.87282218,45.2799989 10.8092319,41.4400001 C11.3596081,39.0616147 11.2787745,36.5755311 10.5751282,34.2399997 L8,17.4399995 L16.1935894,16 Z" id="Path" fill="#3E60D6"></path>
                    <path d="M8.64485392,17.0206118 L7.65071679,17.2711292 C7.30412859,17.3584655 6.99366,17.5438711 6.76048197,17.8027594 L6.43830829,18.1604512 C6.11946351,18.5144489 5.92889119,18.9565422 5.89475181,19.4214039 L5.67322324,22.4381072 L5.32293452,37.1252912 L5.63683627,46.8229897 L4,54.0658347 L10.1665671,55 L11,37.2018222 L9.45864554,17.5711203 C9.44427855,17.388142 9.34497567,17.2207328 9.18769184,17.1143345 C9.03040801,17.0079361 8.83146123,16.9735873 8.64485392,17.0206118 Z" id="Path" fill="#3E60D6"></path>
                    <path d="M23,19.7947615 C21.984941,17.394666 20.4806465,14.8580003 19.4876978,12.5810762 C18.8024553,9.92089386 18.6302678,7.64376858 20.1813135,6.47858916 C20.1813135,3.91676783 20.2727978,2.24589553 18.18846,1 C17.6865843,1.21371026 17.2123901,1.4847081 16.7757834,1.80733243 L16.7741661,1.80644625 C16.6916785,1.86504311 16.6116211,1.92776372 16.532769,1.99183807 C16.4994183,2.01868998 16.4669276,2.04639545 16.4341058,2.07383725 C16.4165688,2.08867675 16.3984,2.10298617 16.3810441,2.11792897 L16.3826447,2.11899185 C14.8680301,3.4051455 13.9988593,5.26942099 14.0000011,7.22949942 L14,20 L21.6648282,20 C21.4113279,18.9213404 21.0739064,17.8035555 20.7244291,16.6895872 C21.2777717,17.7682006 21.8219868,18.85411 22.2706006,19.9130779 L23,19.7947615 Z" id="Path" fill="#2F2E41"></path>
                    <path d="M29,6.4209406 C25.6881985,7.26067422 21.9630403,7.12227026 18,6.4209406 L18,2 L24.1111157,2 C26.8111719,2 29,3.9793203 29,6.42093563 L29,6.4209406 Z" id="Path" fill="#2F2E41"></path>
                </g>
            </g>
        </g>
    </g>
</svg>