<?xml version="1.0" encoding="UTF-8"?>
<svg width="215px" height="177px" viewBox="0 0 215 177" version="1.1" xmlns="http://www.w3.org/2000/svg" xmlns:xlink="http://www.w3.org/1999/xlink">
    <!-- Generator: Sketch 52.6 (67491) - http://www.bohemiancoding.com/sketch -->
    <title>Group 2</title>
    <desc>Created with Sketch.</desc>
    <g id="Intro---Mobile" stroke="none" stroke-width="1" fill="none" fill-rule="evenodd">
        <g id="1.-ID" transform="translate(-84.000000, -222.000000)">
            <g id="Group-2" transform="translate(84.000000, 222.000000)">
                <g id="undraw_sentiment_analysis_jp6w" transform="translate(44.482759, 0.000000)">
                    <path d="M137.684729,114.239581 L113.044664,96.4099187 C113.044664,96.4099187 98.9304511,72.6370321 96.5382098,57.4223844 C94.1459684,42.2077367 83.3809005,15.106648 83.3809005,15.106648 L83.3809005,0.842916511 C83.3809005,0.842916511 70.9412479,-3.91165991 69.9843536,9.16342637 C69.0274593,22.2385126 72.6158168,39.1172726 72.6158168,39.1172726 C72.6158168,39.1172726 76.2041743,60.5128688 68.070556,65.9806323 L38.4067928,114.239581 C38.4067928,114.239581 66.8744421,140.152027 89.1222707,143.480232 L137.684729,177 L137.684729,114.239581 Z" id="Path" fill="#FFB8B8"></path>
                    <path d="M9.42053409,46.2367347 L8.6158135,46.2367347 C1.36545257,46.2367347 -2.71007372,54.5715822 2.05404796,59.8934122 C3.58741894,61.606285 5.91805864,62.7921594 9.42053409,62.8530612 L9.42053409,46.2367347 Z" id="Path" fill="#FFB8B8"></path>
                    <path d="M9.42053409,62.8530612 L8.6158135,62.8530612 C1.36545257,62.8530612 -2.71007372,71.1879087 2.05404796,76.5097388 C3.58741894,78.2226115 5.91805864,79.408486 9.42053409,79.4693878 L9.42053409,62.8530612 Z" id="Path" fill="#FFB8B8"></path>
                    <path d="M9.42053409,80.1918367 L8.6158135,80.1918367 C1.36545257,80.1918367 -2.71007372,88.5266842 2.05404796,93.8485143 C3.58741894,95.561387 5.91805864,96.7472615 9.42053409,96.8081633 L9.42053409,80.1918367 Z" id="Path" fill="#FFB8B8"></path>
                    <path d="M9.42053409,97.5306122 L8.6158135,97.5306122 C1.36545257,97.5306122 -2.71007372,105.86546 2.05404796,111.18729 C3.58741894,112.900163 5.91805864,114.086037 9.42053409,114.146939 L9.42053409,97.5306122 Z" id="Path" fill="#FFB8B8"></path>
                    <path d="M73.1903033,41.3959329 L72.4796206,41.3959329 L72.4796206,22.0396362 C72.4796206,19.0684373 71.2924467,16.2189314 69.1792645,14.1179791 C67.0660823,12.0170267 64.1999932,10.8367275 61.2115059,10.8367347 L19.9639923,10.8367347 C16.9755049,10.8367275 14.1094158,12.0170267 11.9962336,14.1179791 C9.88305145,16.2189314 8.69587763,19.0684373 8.69587763,22.0396362 L8.69587763,128.229752 C8.69587763,131.20095 9.88305145,134.050456 11.9962336,136.151409 C14.1094158,138.252361 16.9755049,139.43266 19.9639923,139.432653 L61.2115014,139.432653 C64.1999887,139.43266 67.0660778,138.252361 69.17926,136.151409 C71.2924422,134.050456 72.479616,131.20095 72.479616,128.229752 L72.479616,55.1740668 L73.1903033,55.1740668 L73.1903033,41.3959329 Z" id="Path" fill="#3F3D56"></path>
                    <path d="M69.567021,22.8189762 L69.567021,128.895287 C69.563291,131.407421 68.4356174,133.786125 66.4930797,135.379428 C66.2808996,135.553306 66.0596676,135.715839 65.8303111,135.866344 C64.4579263,136.78096 62.8449546,137.267826 61.1956429,137.265293 L19.9658816,137.265293 C19.2975263,137.266501 18.6314859,137.186749 17.982317,137.027778 C14.2325279,136.113486 11.5940203,132.754333 11.5945035,128.895287 L11.5945035,22.8189762 C11.5949266,18.19653 15.3426684,14.4494026 19.9658726,14.4489796 L24.9687453,14.4489796 C24.4685288,15.6749431 24.611606,17.0694442 25.3503544,18.1683304 C26.0891028,19.2672165 27.3265524,19.9262449 28.6508243,19.9260613 L52.1567394,19.9260613 C53.480488,19.9246244 54.7169355,19.2653952 55.4557208,18.1671633 C56.194506,17.0689314 56.3389808,15.6753683 55.8411956,14.4489796 L61.1956429,14.4489796 C65.8188506,14.4493977 69.5665979,18.1965265 69.567021,22.8189762 Z" id="Path" fill="#89A1F5"></path>
                    <path d="M31.8848846,93.9964699 C31.8848846,93.9964699 35.951419,105.223717 32.7885579,111.510976 C29.6256968,117.798236 37.7587656,124.983673 37.7587656,124.983673 C37.7587656,124.983673 58.9951109,114.205518 56.2840932,108.816438 C53.5730756,103.427357 49.0546932,96.2419149 49.9583688,91.7510204 L31.8848846,93.9964699 Z" id="Path" fill="#FFB8B8"></path>
                    <ellipse id="Oval" fill="#FFB8B8" cx="39.8561058" cy="83.8040816" rx="14.4931294" ry="14.4489796"></ellipse>
                    <path d="M68.1177081,134.999193 C67.7351946,135.486638 67.300186,135.93063 66.8205169,136.323173 C66.6059572,136.498763 66.3822439,136.662896 66.1503152,136.814884 C64.8074917,137.707132 63.1980454,137.987755 61.4636674,137.987755 L24.6383199,137.987755 L25.2749025,120.339358 L29.3682051,111.258497 C30.2871408,111.978153 31.2705915,112.611652 32.3060624,113.150945 C32.5510881,113.282861 32.8105286,113.414799 33.0819753,113.544308 C36.9158352,115.393581 43.1831225,117.01978 49.2582214,112.491347 C51.170357,111.066619 53.0632745,109.030265 54.8576926,106.2 L66.2007759,112.620878 L66.7965113,119.576624 L68.1177081,134.999193 Z" id="Path" fill="#3E60D6"></path>
                    <path d="M34.058854,104.032653 L33.4953659,109.880281 L33.1981672,112.970544 L32.7535531,117.571696 L30.8538502,137.265293 L20.0239181,137.265293 C19.3549835,137.266494 18.6883658,137.187224 18.0386343,137.029215 L13.7684729,117.422968 L13.8921125,117.342711 L34.058854,104.032653 Z" id="Path" fill="#0A2762"></path>
                    <path d="M69.567021,108.141919 L69.567021,128.971904 C69.5632357,131.461044 68.4188447,133.817974 66.4475094,135.396694 C66.2321838,135.56898 66.007672,135.730025 65.7749154,135.879153 C64.3821854,136.785397 62.7453018,137.267807 61.0715395,137.265296 L46.378014,137.265306 C46.6986488,130.682833 47.2651679,124.258045 47.9281253,118.661643 C48.212606,116.277644 48.5139494,114.044265 48.8225191,112.013277 C49.8157456,105.466105 50.8812939,101.020537 51.6455124,100.420408 L56.6984349,103.675169 L69.567021,108.141919 Z" id="Path" fill="#0A2762"></path>
                    <path d="M23.9136635,134.111544 L23.4018358,137.987741 L19.8683214,137.987741 C19.207755,137.988982 18.5494764,137.907123 17.9078728,137.743955 C14.2017861,136.805518 11.5940288,133.357664 11.5945035,129.396714 L11.5945035,128.616595 L13.2473847,117.497495 L13.8132245,117.414617 L16.3582854,117.036735 L23.9136635,134.111544 Z" id="Path" fill="#0A2762"></path>
                    <path d="M69.567021,111.257143 L69.567021,129.562643 C69.5633785,132.078077 68.4621479,134.459905 66.5651612,136.055301 C66.3579566,136.229408 66.1419122,136.392154 65.917934,136.542857 L63.7697693,126.958441 L66.5419697,119.450282 L69.567021,111.257143 Z" id="Path" fill="#0A2762"></path>
                    <path d="M54.0063983,71.3690636 C51.8300229,67.8727446 48.4233429,65.2963335 44.4420344,64.1357063 L41.5178176,66.4499833 L42.6546995,63.7506419 C41.698636,63.6063514 40.7310065,63.5510257 39.7645055,63.5853904 L37.1334756,66.9319113 L38.222428,63.700018 C33.6762083,64.2734003 29.3541791,66.7231547 26.7343208,70.4602137 C23.3856394,75.2369178 22.8205931,81.8798069 26.1141488,86.6938776 C27.0182778,83.9452062 28.1156106,81.3660238 29.0197395,78.6173325 C29.228349,78.7055764 30.0189567,78.7000382 31.1619627,78.6276573 L32.2619744,76.0885362 L32.5692388,78.5202643 C35.978635,78.2263853 41.0356114,77.5812646 44.2678567,76.9901516 L43.9535761,75.1246802 L45.8339676,76.6748847 C46.8242651,76.4493358 47.4122098,76.2448457 47.3636263,76.0885362 C49.7675036,79.9223387 52.149377,82.3710637 54.5531937,86.2048395 C55.4657076,80.7971547 57.0765972,76.302115 54.0063983,71.3690636 Z" id="Path" fill="#2F2E41"></path>
                    <ellipse id="Oval" fill="#FFB8B8" cx="52.537594" cy="83.4428571" rx="1.0869847" ry="1.80612245"></ellipse>
                    <ellipse id="Oval" fill="#FFB8B8" cx="84.7848068" cy="94.2795918" rx="18.1164117" ry="40.0959184"></ellipse>
                    <path d="M40.9430905,49.1265306 C35.5401648,49.1265306 31.1602282,44.7599364 31.1602282,39.3734694 C31.1602282,33.9870024 35.5401648,29.6204082 40.9430905,29.6204082 C46.3460162,29.6204082 50.7259528,33.9870024 50.7259528,39.3734694 C50.7197755,44.7573834 46.3434553,49.1203721 40.9430905,49.1265306 Z M40.9430905,30.5957143 C36.0804574,30.5957143 32.1385144,34.5256491 32.1385144,39.3734694 C32.1385144,44.2212897 36.0804574,48.1512245 40.9430905,48.1512245 C45.8057236,48.1512245 49.7476666,44.2212897 49.7476666,39.3734694 C49.7421898,34.5279133 45.8034525,30.6011764 40.9430905,30.5957188 L40.9430905,30.5957143 Z" id="Shape" fill="#FFFFFF" fill-rule="nonzero"></path>
                    <ellipse id="Oval" fill="#FFFFFF" cx="36.9574799" cy="36.844898" rx="1.44931294" ry="1.44489796"></ellipse>
                    <ellipse id="Oval" fill="#FFFFFF" cx="44.2040446" cy="36.844898" rx="1.44931294" ry="1.44489796"></ellipse>
                    <path d="M41.1825971,44.0693878 C39.9211318,44.0693878 38.583873,43.6257183 37.1708208,42.7383794 C36.9539187,42.601551 36.8922414,42.3201186 37.0329995,42.109503 C37.1737576,41.8988874 37.4637458,41.8386993 37.6809944,41.9750093 C40.1666,43.5384068 42.284461,43.549737 44.1570789,42.0096655 C44.3546491,41.8475828 44.650195,41.8714061 44.817489,42.0628997 C44.9847831,42.2543932 44.9605884,42.5411728 44.7634249,42.703721 C43.6569817,43.6141655 42.4600901,44.0693878 41.1825971,44.0693878 Z" id="Path" fill="#FFFFFF"></path>
                    <polygon id="Path" fill="#FFFFFF" points="56.5232046 55.6285714 50.0012963 55.6285714 50.0012963 54.6284367 55.5198161 54.6284367 55.5198161 49.1265306 56.5232046 49.1265306"></polygon>
                    <polygon id="Path" fill="#FFFFFF" points="25.6417084 29.6204082 24.6383199 29.6204082 24.6383199 23.1183673 31.1602282 23.1183673 31.1602282 24.1186992 25.6417084 24.1186992"></polygon>
                </g>
                <g id="Group-15" transform="translate(0.000000, 13.778443)" opacity="0.5">
                    <g id="Group" transform="translate(22.960968, 20.221439)" fill="#47E6B1">
                        <rect id="Rectangle" x="1.79562758" y="0.189749492" width="1" height="4.24400564"></rect>
                        <polygon id="Rectangle" transform="translate(2.169991, 2.311752) rotate(90.000000) translate(-2.169991, -2.311752) " points="1.79552011 0.190358507 2.54446228 0.190358507 2.54446228 4.43314612 1.79552011 4.43314612"></polygon>
                    </g>
                    <g id="Group" transform="translate(28.950786, 46.933709)" fill="#47E6B1">
                        <rect id="Rectangle" x="1.79562758" y="0.085439323" width="1" height="4.24400564"></rect>
                        <polygon id="Rectangle" transform="translate(2.169991, 2.207442) rotate(90.000000) translate(-2.169991, -2.207442) " points="1.79552011 0.086048338 2.54446228 0.086048338 2.54446228 4.32883595 1.79552011 4.32883595"></polygon>
                    </g>
                    <path d="M3.06720351,45.0982269 C2.64006793,44.9121457 2.42028059,44.4352908 2.55619967,43.9895429 C2.56682492,43.9565318 2.57351907,43.9223819 2.57614327,43.8878016 C2.58847138,43.6852346 2.4666321,43.4985216 2.2762865,43.4282849 C2.0859409,43.3580483 1.87207127,43.4208863 1.74993525,43.5829347 C1.72948157,43.6109359 1.71240155,43.6412528 1.69904926,43.6732571 C1.51302233,44.1005162 1.03630343,44.320367 0.590683387,44.1844076 C0.557681481,44.1737805 0.523541567,44.1670845 0.488971289,44.1644583 C0.286462479,44.1521267 0.0998029868,44.2740009 0.0295865083,44.4644012 C-0.0406299703,44.6548014 0.0221900512,44.8687325 0.184191889,44.9909035 C0.212185554,45.011363 0.242493705,45.0284487 0.274488392,45.0418066 C0.70162651,45.2278852 0.921414932,45.7047426 0.785492228,46.1504907 C0.77486778,46.1835019 0.768174473,46.2176517 0.765551126,46.252232 C0.753223014,46.4547989 0.875062296,46.641512 1.06540789,46.7117487 C1.25575349,46.7819853 1.46962313,46.7191472 1.59175914,46.5570989 C1.61221361,46.5290978 1.62929447,46.4987808 1.64264763,46.4667765 C1.82867284,46.0395157 2.3053933,45.8196642 2.7510135,45.9556259 C2.78401514,45.9662541 2.81815518,45.9729502 2.8527256,45.9755752 C3.05523268,45.9879031 3.24188881,45.8660287 3.31210461,45.6756303 C3.38232041,45.4852319 3.31950307,45.2713029 3.157505,45.14913 C3.12951042,45.1286693 3.09920045,45.1115835 3.06720351,45.0982269 Z" id="Path" fill="#4D8AF0"></path>
                    <ellipse id="Oval" fill="#3E60D6" cx="18.0180508" cy="92.7046213" rx="1.49745445" ry="1.49788434"></ellipse>
                    <ellipse id="Oval" fill="#3E60D6" cx="3.29308203" cy="2.33226584" rx="1.49745445" ry="1.49788434"></ellipse>
                </g>
                <g id="Group-14" transform="translate(149.334975, 6.359281)" opacity="0.5">
                    <g id="Group" transform="translate(0.775332, 0.574040)" fill="#47E6B1">
                        <rect id="Rectangle" x="1.79562758" y="0.189749492" width="1" height="4.24400564"></rect>
                        <polygon id="Rectangle" transform="translate(2.169991, 2.311752) rotate(90.000000) translate(-2.169991, -2.311752) " points="1.79552011 0.190358507 2.54446228 0.190358507 2.54446228 4.43314612 1.79552011 4.43314612"></polygon>
                    </g>
                    <g id="Group" transform="translate(61.172661, 16.301825)" fill="#47E6B1">
                        <rect id="Rectangle" x="1.79562758" y="0.085439323" width="1" height="4.24400564"></rect>
                        <polygon id="Rectangle" transform="translate(2.169991, 2.207442) rotate(90.000000) translate(-2.169991, -2.207442) " points="1.79552011 0.086048338 2.54446228 0.086048338 2.54446228 4.32883595 1.79552011 4.32883595"></polygon>
                    </g>
                    <path d="M48.7661688,81.1221959 C48.3390332,80.9361147 48.1192459,80.4592598 48.255165,80.0135119 C48.2657902,79.9805008 48.2724843,79.9463509 48.2751086,79.9117706 C48.2874367,79.7092036 48.1655974,79.5224905 47.9752518,79.4522539 C47.7849062,79.3820173 47.5710365,79.4448553 47.4489005,79.6069037 C47.4284469,79.6349049 47.4113668,79.6652218 47.3980145,79.6972261 C47.2119876,80.1244851 46.7352687,80.3443359 46.2896487,80.2083766 C46.2566468,80.1977495 46.2225068,80.1910535 46.1879366,80.1884273 C45.9854278,80.1760957 45.7987683,80.2979699 45.7285518,80.4883702 C45.6583353,80.6787704 45.7211553,80.8927014 45.8831572,81.0148725 C45.9111508,81.0353319 45.941459,81.0524176 45.9734537,81.0657756 C46.4005918,81.2518542 46.6203802,81.7287115 46.4844575,82.1744597 C46.4738331,82.2074708 46.4671398,82.2416207 46.4645164,82.276201 C46.4521883,82.4787679 46.5740276,82.665481 46.7643732,82.7357176 C46.9547188,82.8059543 47.1685884,82.7431162 47.2907244,82.5810679 C47.3111789,82.5530668 47.3282598,82.5227498 47.3416129,82.4907454 C47.5276381,82.0634847 48.0043586,81.8436332 48.4499788,81.9795949 C48.4829804,81.9902231 48.5171205,81.9969191 48.5516909,81.9995442 C48.754198,82.0118721 48.9408541,81.8899977 49.0110699,81.6995993 C49.0812857,81.5092008 49.0184684,81.2952718 48.8564703,81.173099 C48.8284757,81.1526383 48.7981657,81.1355525 48.7661688,81.1221959 Z" id="Path" fill="#4D8AF0"></path>
                    <path d="M35.5386545,4.97974177 C35.1115189,4.79366057 34.8917316,4.31680559 35.0276506,3.8710577 C35.0382759,3.83804663 35.04497,3.80389677 35.0475942,3.76931641 C35.0599223,3.56674946 34.9380831,3.38003638 34.7477375,3.30979974 C34.5573919,3.23956311 34.3435222,3.30240116 34.2213862,3.46444951 C34.2009325,3.49245069 34.1838525,3.52276766 34.1705002,3.55477194 C33.9844733,3.98203098 33.5077544,4.20188178 33.0621343,4.06592247 C33.0291324,4.05529534 32.9949925,4.0485993 32.9604223,4.04597315 C32.7579134,4.0336415 32.5712539,4.15551576 32.5010375,4.345916 C32.430821,4.53631624 32.493641,4.75024728 32.6556429,4.87241835 C32.6836365,4.89287778 32.7139447,4.90996348 32.7459394,4.92332146 C33.1730775,5.10940006 33.3928659,5.58625738 33.2569432,6.03200552 C33.2463187,6.06501669 33.2396254,6.09916655 33.2370021,6.13374682 C33.224674,6.33631376 33.3465133,6.52302684 33.5368589,6.59326348 C33.7272045,6.66350011 33.9410741,6.60066206 34.0632101,6.43861371 C34.0836646,6.4106126 34.1007454,6.38029564 34.1140986,6.34829129 C34.3001238,5.92103055 34.7768443,5.70117903 35.2224645,5.83714075 C35.2554661,5.84776892 35.2896061,5.85446498 35.3241766,5.85709007 C35.5266836,5.86941796 35.7133398,5.74754349 35.7835556,5.55714509 C35.8537714,5.36674669 35.790954,5.15281768 35.628956,5.03064487 C35.6009614,5.0101841 35.5706514,4.99309832 35.5386545,4.97974177 Z" id="Path" fill="#4D8AF0"></path>
                    <path d="M41.5284723,48.4183877 C41.1013367,48.2323065 40.8815494,47.7554516 41.0174684,47.3097037 C41.0280937,47.2766926 41.0347878,47.2425428 41.037412,47.2079624 C41.0497401,47.0053954 40.9279009,46.8186824 40.7375553,46.7484457 C40.5472097,46.6782091 40.33334,46.7410471 40.211204,46.9030955 C40.1907503,46.9310967 40.1736703,46.9614136 40.160318,46.9934179 C39.9742911,47.420677 39.4975722,47.6405278 39.0519522,47.5045685 C39.0189502,47.4939413 38.9848103,47.4872453 38.9502401,47.4846191 C38.7477312,47.4722875 38.5610718,47.5941617 38.4908553,47.784562 C38.4206388,47.9749622 38.4834588,48.1888933 38.6454607,48.3110643 C38.6734543,48.3315238 38.7037625,48.3486095 38.7357572,48.3619674 C39.1628953,48.548046 39.3826837,49.0249034 39.246761,49.4706515 C39.2361365,49.5036627 39.2294432,49.5378125 39.2268199,49.5723928 C39.2144918,49.7749597 39.3363311,49.9616728 39.5266767,50.0319095 C39.7170223,50.1021461 39.9308919,50.039308 40.0530279,49.8772597 C40.0734824,49.8492586 40.0905632,49.8189416 40.1039164,49.7869373 C40.2899416,49.3596765 40.7666621,49.139825 41.2122823,49.2757867 C41.2452839,49.2864149 41.2794239,49.293111 41.3139944,49.2957361 C41.5165014,49.3080639 41.7031576,49.1861895 41.7733734,48.9957911 C41.8435892,48.8053927 41.7807718,48.5914637 41.6187738,48.4692908 C41.5907792,48.4488301 41.5604692,48.4317443 41.5284723,48.4183877 Z" id="Path" fill="#4D8AF0"></path>
                    <ellipse id="Oval" fill="#4D8AF0" cx="2.82053507" cy="31.6157553" rx="1.49745445" ry="1.49788434"></ellipse>
                    <ellipse id="Oval" fill="#47E6B1" cx="15.0497464" cy="69.5621587" rx="1.49745445" ry="1.49788434"></ellipse>
                </g>
            </g>
        </g>
    </g>
</svg>