<?xml version="1.0" encoding="UTF-8"?>
<svg width="66px" height="83px" viewBox="0 0 66 83" version="1.1" xmlns="http://www.w3.org/2000/svg" xmlns:xlink="http://www.w3.org/1999/xlink">
    <!-- Generator: Sketch 52.6 (67491) - http://www.bohemiancoding.com/sketch -->
    <title>Lock</title>
    <desc>Created with Sketch.</desc>
    <g id="OB---Mobile-1.1" stroke="none" stroke-width="1" fill="none" fill-rule="evenodd">
        <g id="Lock" fill="#3E60D6">
            <path d="M32.5515672,0.24137931 C20.5694063,0.24137931 10.8505224,9.85049165 10.8505224,21.697318 L10.8505224,33.9578544 L6.97533584,33.9578544 C3.15121771,33.9578544 1.56319402e-13,37.0734802 1.56319402e-13,40.8544061 L1.56319402e-13,76.1034483 C1.56319402e-13,79.8843743 3.15121771,83 6.97533584,83 L58.1277986,83 C61.9519168,83 65.1031345,79.8843743 65.1031345,76.1034483 L65.1031345,40.8544061 C65.1031345,37.0734802 61.9519168,33.9578544 58.1277986,33.9578544 L54.2526121,33.9578544 L54.2526121,21.697318 C54.2526121,9.85049165 44.5337281,0.24137931 32.5515672,0.24137931 Z M32.5515672,4.83908046 C42.03794,4.83908046 49.6023882,12.3180907 49.6023882,21.697318 L49.6023882,36.256705 C49.6025166,37.5262725 50.6434294,38.5554286 51.9275001,38.5555556 L58.1277986,38.5555556 C59.4561287,38.5555556 60.4529106,39.5410792 60.4529106,40.8544061 L60.4529106,76.1034483 C60.4529106,77.4167752 59.4561287,78.4022989 58.1277986,78.4022989 L6.97533584,78.4022989 C5.64700582,78.4022989 4.65022389,77.4167752 4.65022389,76.1034483 L4.65022389,40.8544061 C4.65022389,39.5410792 5.64700582,38.5555556 6.97533584,38.5555556 L44.177127,38.5555556 C45.0156458,38.5672804 45.7955941,38.1317043 46.2183142,37.415618 C46.6410343,36.6995316 46.6410343,35.8138783 46.2183142,35.097792 C45.7955941,34.3817057 45.0156458,33.9461296 44.177127,33.9578544 L15.5007463,33.9578544 L15.5007463,21.697318 C15.5007463,12.3180907 23.0651945,4.83908046 32.5515672,4.83908046 Z" id="Shape" fill-rule="nonzero" transform="translate(32.551567, 41.620690) scale(-1, 1) translate(-32.551567, -41.620690) "></path>
            <path d="M32.5515672,50.816092 C29.9833195,50.816092 27.9013433,52.8745529 27.9013433,55.4137931 C27.9037367,57.0540243 28.7897438,58.5687742 30.2264553,59.3888889 L30.2264553,66.908046 C30.2264553,68.1816092 31.2634552,69.2068966 32.5515672,69.2068966 C33.8396793,69.2068966 34.8766792,68.1816092 34.8766792,66.908046 L34.8766792,59.3888889 C36.3133907,58.5687742 37.1993978,57.0540243 37.2017911,55.4137931 C37.2017911,52.8745529 35.119815,50.816092 32.5515672,50.816092 Z" id="Path"></path>
        </g>
    </g>
</svg>