<svg xmlns="http://www.w3.org/2000/svg" width="120" height="36" viewBox="0 0 120 36">
    <g fill="#1C2744" fill-rule="evenodd">
        <path d="M20.41 28.75v-.793V2.198c0-.462.033-.908.3-1.304.448-.644 1.146-.941 1.894-.776.731.165 1.296.809 1.38 1.585.016.198.016.413.016.61v31.39c0 1.222-.432 2.014-1.33 2.163-1.462.23-2.243.099-2.908-1.024-3.74-6.407-7.513-12.813-11.269-19.236-1.529-2.626-3.041-5.25-4.57-7.876-.067-.116-.084-.281-.316-.33v26.418c0 .48-.034.941-.333 1.354-.415.595-1.163.892-1.845.743-.681-.165-1.263-.76-1.363-1.453-.033-.247-.033-.495-.033-.743V2.264c0-1.172.432-1.948 1.33-2.113 1.43-.264 2.277-.083 2.875.957 2.676 4.657 5.402 9.28 8.111 13.92 2.643 4.508 5.269 9.032 7.895 13.54.016.033.05.066.166.181M28.105 17.983V2.198c0-1.436.682-2.13 2.128-2.13H50.06c1.03 0 1.778.529 1.978 1.354.183.793-.166 1.569-.914 1.982-.366.198-.748.214-1.147.214-5.884 0-11.767 0-17.635-.016-.498 0-.664.082-.664.627.016 4.54.016 9.082 0 13.622 0 .545.166.628.664.628 4.687-.017 9.391 0 14.078-.017.549 0 1.03.1 1.446.463.532.478.765 1.09.549 1.783-.2.677-.682 1.123-1.397 1.271-.249.05-.498.05-.748.05-4.653 0-9.307.016-13.96-.017-.533 0-.649.132-.632.644.033 3.038.033 6.077 0 9.098 0 .512.116.644.648.644 5.834-.016 11.684-.016 17.518-.016.366 0 .748-.017 1.113.132.815.33 1.28 1.156 1.114 1.998-.15.792-.88 1.42-1.729 1.42-1.412.016-2.825 0-4.238 0h-15.84c-1.462 0-2.143-.677-2.143-2.114-.017-5.267-.017-10.55-.017-15.835M119.983 13.443c0 3.682.017 7.364 0 11.046-.016 4.822-2.925 9.016-7.495 10.65-7.646 2.741-15.54-2.576-15.607-10.584-.067-7.496-.017-15.009-.017-22.505 0-.991.449-1.668 1.23-1.916.715-.23 1.48.066 1.945.727.282.396.282.858.282 1.32v21.912c0 2.245.649 4.243 2.227 5.878 2.26 2.361 5.85 3.104 8.976 1.882 3.058-1.188 5.019-4.045 5.019-7.463.017-6.11 0-12.219 0-18.328V2c0-1.14.748-1.948 1.745-1.932.98.017 1.695.81 1.695 1.932v11.443M64.803 35.932c-1.146-.083-2.243-.48-3.074-1.272-1.446-1.387-2.959-2.74-4.222-4.31-1.712-2.113-1.596-4.127.233-6.158 1.412-1.569 2.975-3.005 4.454-4.508 2.277-2.311 4.57-4.623 6.83-6.951.333-.347.5-.297.799.016.415.446.88.875 1.346 1.288.283.248.283.396.017.66-3.092 3.039-6.167 6.093-9.241 9.148-.732.727-1.347 1.536-1.696 2.526-.299.86-.282 1.718.1 2.527.731 1.519 1.911 2.609 3.49 3.22 1.18.445 2.294.23 3.258-.628.814-.726 1.612-1.453 2.393-2.196.216-.198.333-.231.549 0 .449.479.93.941 1.413 1.387.199.182.216.314.016.512-1.213 1.172-2.343 2.427-3.64 3.5-.864.727-1.845 1.173-3.025 1.239"/>
        <path d="M84.033 35.866c-1.33-.05-2.376-.611-3.29-1.437-1.73-1.552-3.325-3.236-4.987-4.87-2.177-2.13-4.321-4.26-6.498-6.39-.266-.249-.316-.397-.017-.661.482-.446.947-.908 1.38-1.404.249-.28.398-.28.664 0 2.959 3.17 6.083 6.176 9.175 9.214.715.71 1.512 1.32 2.51 1.634.78.248 1.578.314 2.326-.016 1.895-.842 3.192-2.23 3.64-4.277.2-.957-.166-1.783-.797-2.493-.699-.792-1.43-1.569-2.178-2.328-.232-.248-.282-.396 0-.644.466-.413.881-.859 1.313-1.321.2-.215.35-.248.565-.033 1.18 1.205 2.477 2.295 3.524 3.616 1.712 2.163 1.645 4.161-.399 6.374-1.13 1.221-2.344 2.36-3.557 3.5-.98.875-2.077 1.503-3.374 1.536"/>
        <path d="M88.52 8.572c.017-.297-.05-.578-.116-.859-.448-1.767-2.675-3.731-4.487-3.963-.98-.115-1.795.232-2.51.859-.781.693-1.546 1.403-2.293 2.13-.25.248-.4.248-.649-.017-.432-.462-.897-.908-1.363-1.337-.132-.132-.249-.248-.066-.43 1.396-1.337 2.61-2.872 4.238-3.946 2.011-1.32 3.723-1.106 5.718.595 1.313 1.123 2.443 2.427 3.656 3.649.1.099.183.198.266.297 1.795 2.196 1.762 4.277-.15 6.39-.199.215-.382.43-.598.644-3.54 3.567-7.08 7.15-10.62 10.733-.333.33-.532.396-.848.016-.399-.446-.831-.875-1.296-1.255-.366-.297-.283-.462.016-.743 1.114-1.023 2.21-2.064 3.275-3.12 2.044-2.031 4.055-4.095 6.066-6.16.997-.957 1.729-2.063 1.762-3.483"/>
        <path d="M65.053 3.717c-.35-.016-.715 0-1.03.149-2.012.859-3.391 2.279-3.824 4.458-.182.908.217 1.7.815 2.378.698.792 1.43 1.568 2.177 2.344.25.248.266.397 0 .644-.465.413-.88.859-1.313 1.321-.2.215-.349.248-.565.033-1.163-1.205-2.476-2.295-3.524-3.616-1.678-2.146-1.662-4.111.366-6.34 1.08-1.189 2.277-2.262 3.424-3.385.2-.182.399-.363.615-.528 2.077-1.586 4.072-1.553 6.066.148.482.413.948.859 1.397 1.305 3.407 3.351 6.797 6.72 10.221 10.072.266.264.3.413.017.677-.499.462-.964.94-1.43 1.453-.216.247-.349.247-.581 0-2.892-3.187-6-6.16-9.059-9.18-.747-.744-1.562-1.388-2.576-1.751-.382-.132-.78-.198-1.196-.182"/>
    </g>
</svg>
