<?xml version="1.0" encoding="UTF-8"?>
<svg width="87px" height="85px" viewBox="0 0 87 85" version="1.1" xmlns="http://www.w3.org/2000/svg" xmlns:xlink="http://www.w3.org/1999/xlink">
    <!-- Generator: Sketch 52.6 (67491) - http://www.bohemiancoding.com/sketch -->
    <title>Unlock</title>
    <desc>Created with Sketch.</desc>
    <g id="OB---Mobile-1.1" stroke="none" stroke-width="1" fill="none" fill-rule="evenodd">
        <g id="6.-Conexion-exitosa" transform="translate(-157.000000, -318.000000)" fill="#3E60D6">
            <g id="Unlock" transform="translate(157.000000, 318.000000)">
                <path d="M30.4269398,80.4900852 C38.325821,80.4902346 46.2245525,80.4869482 54.123284,80.4953137 C54.9058348,80.49621 55.5732341,80.3015615 56.0681308,79.6657794 C56.3282324,79.3320536 56.4758778,78.9560518 56.4986386,78.5338902 C56.5074733,78.3724051 56.5086713,78.2103225 56.508821,78.0485387 C56.5091205,67.1062452 56.5092702,56.1639517 56.5083718,45.2216582 C56.5083718,44.9484332 56.5206506,44.6737144 56.4523683,44.4045228 C56.2069415,43.4384508 55.4154062,42.8105861 54.3845835,42.7689077 C54.2101343,42.7618866 54.0352358,42.76592 53.8606368,42.76592 C42.5178434,42.7657707 31.1750499,42.7633805 19.8321067,42.7709991 C19.113346,42.7714473 18.4663115,42.639391 17.9640775,42.0932399 C17.3510344,41.4262364 17.1914096,40.6461485 17.5153012,39.8097425 C17.8405404,38.9699007 18.4937143,38.5148743 19.3953098,38.4319657 C19.5809897,38.4149359 19.7693649,38.4244965 19.9565422,38.4244965 C28.7038606,38.4241977 37.451179,38.4221063 46.1983477,38.4321151 C46.5605731,38.4325633 46.732926,38.3729587 46.6261601,37.9802258 C46.6039983,37.8989605 46.6218176,37.8066406 46.6218176,37.7195492 C46.6218176,31.9683805 46.6198709,26.2170624 46.622716,20.4657443 C46.6242134,17.5315264 47.1544492,14.7024754 48.386525,12.0262452 C50.6962926,7.00855624 54.4333993,3.48113093 59.5815232,1.45816081 C61.6626351,0.640427944 63.8323941,0.222747803 66.0711842,0.158960457 C71.0565387,0.0167460457 75.5161497,1.47683392 79.3889225,4.6042065 C83.3034733,7.76534007 85.6921549,11.8546019 86.5840172,16.8050677 C86.7828744,17.9088726 86.8797573,19.0238814 86.8808055,20.1453137 C86.8845491,23.9794262 86.8869449,27.813688 86.8812547,31.6478005 C86.8794578,32.8681257 86.056327,33.8788638 84.9224819,34.0923348 C83.3173993,34.394391 81.9706213,33.2538374 81.9665783,31.5642944 C81.9581928,28.0040044 81.9641824,24.4437144 81.9631343,20.8834244 C81.9629845,20.472616 81.9682255,20.0613594 81.949957,19.6511485 C81.7606833,15.4018954 80.0882169,11.8308497 76.9547194,8.95967223 C74.70979,6.90249297 72.0544182,5.61957557 69.0369707,5.20981283 C63.9077143,4.51323111 59.466821,5.99318717 55.8216558,9.6785123 C53.4013787,12.1255861 52.0487608,15.1086529 51.632179,18.5153752 C51.549222,19.1949271 51.5397883,19.8798568 51.5402375,20.5650852 C51.5436816,26.3164033 51.5423339,32.0675721 51.5418847,37.8188902 C51.5418847,38.4237496 51.540537,38.4103049 52.1526816,38.4247953 C53.322315,38.4521327 54.4976386,38.3247074 55.6603838,38.5629763 C58.5381222,39.1525984 60.7197108,41.703196 60.840253,44.6309903 C60.849537,44.8547689 60.8559759,45.0788462 60.8559759,45.3029236 C60.8568744,56.1953225 60.8525318,67.0878708 60.8618158,77.9804192 C60.8630138,79.3313067 60.611747,80.6027214 59.8709742,81.7458146 C58.6628571,83.6096898 56.9596936,84.6668866 54.7225508,84.8204543 C54.3125577,84.8485387 53.9003184,84.8575018 53.4891274,84.8575018 C37.9535628,84.8592944 22.4179983,84.8564561 6.88243373,84.8622821 C4.7996747,84.863029 3.02193976,84.1860167 1.6329346,82.6104543 C0.51541136,81.3427742 -0.00808605852,79.8505685 0.00434251291,78.1626687 C0.0148244406,76.7311134 0.0061394148,75.299558 0.0061394148,73.8678533 C0.0061394148,64.3323172 0.0122788296,54.7966318 -4.76806027e-14,45.2610958 C-0.00209638554,43.6614824 0.392772806,42.2091626 1.39289845,40.9501467 C2.62063167,39.4050589 4.22885886,38.4978445 6.20679862,38.4473524 C8.87549742,38.3790835 11.5470413,38.4288286 14.2173873,38.4200149 C14.4322668,38.419268 14.4941102,38.4857443 14.4902169,38.6951819 C14.4783873,39.3423172 14.4911153,39.9897513 14.4834785,40.637036 C14.469852,41.80179 13.5384578,42.7500852 12.3646317,42.7596459 C10.4431446,42.7750325 8.521358,42.7605422 6.59972117,42.7680114 C5.48728916,42.7726424 4.67014802,43.3903489 4.41259208,44.3957091 C4.34685542,44.6525018 4.354642,44.9143735 4.35449225,45.1751995 C4.35374355,56.1548392 4.36542341,67.1346283 4.33981756,78.1141186 C4.33652324,79.5489605 5.33260585,80.5102522 6.73059552,80.5048743 C14.629327,80.4743998 22.5280585,80.4900852 30.4269398,80.4900852" id="Fill-1"></path>
                <path d="M28.2608793,66.2197355 C28.2608793,65.0747004 28.2551892,63.9296652 28.2659706,62.7847794 C28.2679172,62.5723541 28.1958914,62.4509042 28.0232391,62.3333383 C26.5080015,61.3033295 25.7892408,59.5062293 26.1900997,57.7788919 C26.6026384,56.0015105 28.006468,54.7070905 29.8303234,54.4223629 C31.5592425,54.1527232 33.3495558,55.0485844 34.2346797,56.6260888 C35.1024336,58.1734174 34.9056728,60.1986283 33.7622442,61.5139622 C33.4913613,61.8257285 33.203857,62.1210624 32.845375,62.3293049 C32.6439723,62.4462733 32.5978518,62.59521 32.5987503,62.8157021 C32.6065368,65.0682768 32.6056384,67.3210009 32.6023441,69.5735756 C32.6005472,70.7614842 31.7293492,71.7060448 30.5657055,71.793435 C29.4794783,71.8749991 28.4567417,71.0708603 28.2917262,69.950623 C28.2234439,69.4870817 28.2638742,69.0071081 28.2617778,68.5346037 C28.2584835,67.7630308 28.2608793,66.9913084 28.2608793,66.2197355" id="Fill-4"></path>
            </g>
        </g>
    </g>
</svg>